<svg width="2342" height="3323" viewBox="0 0 2342 3323" fill="none" xmlns="http://www.w3.org/2000/svg">
<path d="M1714.32 2821.23H626.684C626.684 2821.23 578.061 2134.38 687.991 1991.78C769.008 1886.67 888.575 1911.13 1170.5 1911.13C1452.43 1911.13 1572 1886.67 1653.02 1991.78C1762.95 2134.38 1714.32 2821.23 1714.32 2821.23Z" fill="white"/>
<path d="M1714.32 2837.23H626.684C618.286 2837.23 611.317 2830.74 610.724 2822.36C608.721 2794.07 562.962 2127.76 675.319 1982.01C747.133 1888.85 844.209 1890.48 1037.6 1893.72C1076.95 1894.38 1121.54 1895.13 1170.5 1895.13C1219.47 1895.13 1264.06 1894.38 1303.41 1893.72C1496.8 1890.47 1593.87 1888.84 1665.69 1982.01C1778.04 2127.76 1732.29 2794.07 1730.28 2822.36C1729.69 2830.74 1722.72 2837.23 1714.32 2837.23ZM641.684 2805.23H1699.32C1705.53 2704.7 1736.6 2126.41 1640.35 2001.55C1578.34 1921.11 1492.35 1922.55 1303.95 1925.72C1264.47 1926.38 1219.74 1927.13 1170.5 1927.13C1121.27 1927.13 1076.53 1926.38 1037.06 1925.72C848.66 1922.55 762.667 1921.11 700.663 2001.55C604.411 2126.41 635.481 2704.7 641.684 2805.23Z" fill="#451A1B"/>
<path d="M1180.3 3322.2C1729.2 3322.2 2174.16 3244.81 2174.16 3149.36C2174.16 3053.9 1729.2 2976.52 1180.3 2976.52C631.41 2976.52 186.444 3053.9 186.444 3149.36C186.444 3244.81 631.41 3322.2 1180.3 3322.2Z" fill="#E87C7E"/>
<path d="M1245.87 1785.87L1372.04 1867.87C1626.87 1953.87 1901.18 2388.73 1885.2 2701.2C1750.8 2999.27 1228.89 2833.44 1228.89 2833.44H1116.54C1116.54 2833.44 594.632 2999.27 460.229 2701.2C444.255 2388.73 718.562 1953.87 973.394 1867.87L1099.56 1785.87H1245.87Z" fill="white"/>
<path d="M1571.35 1999.41C1465.07 2039.05 1324.63 2063.17 1170.63 2063.17C1018.07 2063.17 878.834 2039.53 772.914 2000.49C837.313 1937.73 906.034 1890.57 973.393 1867.85L1099.55 1785.85H1245.87L1372.03 1867.85C1438.99 1890.45 1507.31 1937.13 1571.35 1999.41Z" fill="#DFE8F4"/>
<path d="M1885.2 2701.19C1750.8 2999.27 1228.88 2833.43 1228.88 2833.43H1163.4V1785.87H1245.88L1372.04 1867.87C1626.88 1953.87 1901.2 2388.75 1885.2 2701.19Z" fill="#F0F7FF"/>
<path d="M1571.35 1999.41C1465.07 2039.05 1324.63 2063.17 1170.63 2063.17C1168.23 2063.17 1165.79 2063.17 1163.39 2063.13V1785.85H1245.87L1372.03 1867.85C1438.99 1890.45 1507.31 1937.13 1571.35 1999.41Z" fill="#CBDDEF"/>
<path d="M814.822 2879.44C674.062 2879.4 523.782 2842.2 460.222 2701.2C458.342 2664.36 460.502 2625.8 466.182 2586.32C646.862 2656.88 592.742 2327.2 834.182 2042C891.982 1973.72 838.262 2621.28 814.822 2879.44Z" fill="#DFE8F4"/>
<path d="M1530.6 2879.44C1671.36 2879.4 1821.64 2842.2 1885.2 2701.2C1887.08 2664.36 1884.92 2625.8 1879.24 2586.32C1698.56 2656.88 1752.68 2327.2 1511.24 2042C1453.44 1973.72 1507.16 2621.28 1530.6 2879.44Z" fill="#CBDDEF"/>
<path d="M815.306 2895.44C628.672 2895.44 501.124 2830.82 445.642 2707.78C444.823 2705.96 444.35 2704.01 444.249 2702.02C428.181 2387.7 701.078 1944.6 966.347 1853.36L1090.84 1772.45L1108.28 1799.28L982.114 1881.28C980.991 1882.01 979.781 1882.6 978.512 1883.03C861.398 1922.55 730.684 2044.05 628.853 2208.05C526.709 2372.54 469.729 2555.17 476.064 2697.35C529.496 2812.53 651.148 2868.3 837.704 2863.12C981.122 2859.14 1110.41 2818.6 1111.7 2818.19L1121.39 2848.69C1115.98 2850.41 987.072 2890.87 839.246 2895.09C831.163 2895.32 823.178 2895.44 815.306 2895.44Z" fill="#451A1B"/>
<path d="M1530.12 2895.44C1522.24 2895.44 1514.28 2895.32 1506.19 2895.09C1358.36 2890.87 1229.46 2850.41 1224.04 2848.69L1233.73 2818.19C1235.02 2818.6 1364.31 2859.14 1507.73 2863.12C1694.28 2868.29 1815.94 2812.53 1869.37 2697.35C1875.7 2555.17 1818.72 2372.54 1716.58 2208.05C1614.75 2044.05 1484.04 1922.55 1366.92 1883.03C1365.65 1882.6 1364.44 1882.01 1363.32 1881.28L1237.15 1799.28L1254.59 1772.45L1379.09 1853.36C1644.36 1944.6 1917.25 2387.7 1901.18 2702.02C1901.08 2704.01 1900.61 2705.96 1899.79 2707.78C1844.31 2830.81 1716.74 2895.44 1530.12 2895.44Z" fill="#451A1B"/>
<path d="M1574.75 2494.39L1567.67 2471.46C1673.89 2438.7 1690.14 2395.7 1705.86 2354.11C1717.14 2324.27 1728.8 2293.42 1771.62 2271.58L1782.52 2292.96C1747.97 2310.58 1738.86 2334.69 1728.31 2362.6C1711.37 2407.4 1692.18 2458.18 1574.75 2494.39Z" fill="#451A1B"/>
<path d="M1458.88 2125.75C1526.54 2091.08 1594.38 2022.62 1594.38 2022.62C1594.38 2022.62 1645.21 2012.41 1641.04 2075.2C1619.88 2132.41 1501.54 2203.08 1501.54 2203.08" fill="#56A1FC"/>
<path d="M1641.03 2075.21C1619.87 2132.41 1501.55 2203.09 1501.55 2203.09L1458.87 2125.73C1488.35 2110.65 1517.83 2089.13 1541.75 2069.65C1572.75 2044.45 1594.39 2022.61 1594.39 2022.61C1594.39 2022.61 1630.11 2015.45 1639.15 2050.13C1640.95 2056.81 1641.71 2065.05 1641.03 2075.21Z" fill="#FF6669"/>
<path d="M1641.03 2075.21C1619.87 2132.41 1501.55 2203.09 1501.55 2203.09L1458.87 2125.73C1488.35 2110.65 1517.83 2089.13 1541.75 2069.65C1572.83 2103.41 1608.27 2109.65 1639.15 2050.13C1640.95 2056.81 1641.71 2065.05 1641.03 2075.21Z" fill="#ED4A4D"/>
<path d="M1507.7 2213.38L1495.39 2192.78C1526.91 2173.94 1611.57 2116.09 1629.17 2072.63C1629.71 2061.45 1628.44 2047.33 1620.13 2039.94C1613.68 2034.2 1604.63 2033.82 1599.87 2034.07C1585.72 2047.94 1525.61 2105.04 1464.35 2136.43L1453.4 2115.07C1518.53 2081.7 1585.19 2014.85 1585.85 2014.18L1588.43 2011.58L1592.01 2010.86C1593.05 2010.65 1617.72 2005.92 1635.84 2021.79C1648.87 2033.21 1654.65 2051.44 1653.01 2076L1652.9 2077.74L1652.3 2079.37C1629.92 2139.85 1512.68 2210.41 1507.7 2213.38Z" fill="#451A1B"/>
<path d="M1761.88 2344.95C1767.77 2344.95 1772.55 2340.17 1772.55 2334.28C1772.55 2328.39 1767.77 2323.62 1761.88 2323.62C1755.99 2323.62 1751.21 2328.39 1751.21 2334.28C1751.21 2340.17 1755.99 2344.95 1761.88 2344.95Z" fill="#451A1B"/>
<path d="M1728.49 2283.99C1729.43 2278.18 1725.48 2272.7 1719.67 2271.76C1713.85 2270.81 1708.37 2274.76 1707.43 2280.58C1706.48 2286.39 1710.43 2291.87 1716.25 2292.82C1722.06 2293.76 1727.54 2289.81 1728.49 2283.99Z" fill="#451A1B"/>
<path d="M1004.57 3033L572.1 3146.66C572.1 3146.66 451.983 3160.41 368.869 3160.41C200.079 3160.41 149.911 2898.12 149.911 2898.12L327.328 2724.71L776.85 2585.28" fill="#777782"/>
<path d="M1004.57 3033.01L572.112 3146.67C572.112 3146.67 451.964 3160.43 368.885 3160.43C200.072 3160.43 149.897 2898.13 149.897 2898.13L285.234 2765.85L327.324 2724.7L661.642 2621L766.808 2588.38L776.851 2585.28L811.961 2654.32L1004.57 3033.01Z" fill="#777782"/>
<path d="M1004.57 3033.01L572.131 3146.69C572.131 3146.69 451.971 3160.45 368.891 3160.45C200.091 3160.45 149.891 2898.13 149.891 2898.13L285.251 2765.85L327.331 2724.69L378.251 2708.89L562.291 2651.81L661.651 2621.01L766.811 2588.37L776.851 2585.29L811.971 2654.33L1004.57 3033.01Z" fill="white"/>
<path d="M1004.57 3033.01L572.131 3146.69C572.131 3146.69 451.971 3160.45 368.891 3160.45C200.091 3160.45 149.891 2898.13 149.891 2898.13L285.251 2765.85L327.331 2724.69L378.251 2708.89L395.011 2725.97C463.691 2765.45 464.545 2926.75 589.571 2900.69C681.271 2881.57 720.771 2733.07 562.291 2651.81L661.651 2621.01L766.811 2588.37L776.851 2585.29L811.971 2654.33L1004.57 3033.01Z" fill="#DFE8F4"/>
<path d="M368.87 3176.41C188.919 3176.41 136.346 2912.37 134.197 2901.13L132.582 2892.69L318.904 2710.57L772.111 2570C780.551 2567.37 789.514 2572.1 792.133 2580.54C794.75 2588.98 790.031 2597.94 781.591 2600.56L335.753 2738.85L167.441 2903.36C177.553 2946.57 231.407 3144.41 368.869 3144.41C445.86 3144.41 556.786 3132.27 569.156 3130.89L1000.5 3017.53C1009.05 3015.27 1017.8 3020.39 1020.05 3028.93C1022.29 3037.48 1017.19 3046.23 1008.64 3048.47L575.059 3162.42L573.919 3162.55C568.978 3163.12 451.941 3176.41 368.87 3176.41Z" fill="#451A1B"/>
<path d="M572.1 3146.66C529.35 3158.18 371.39 3202.9 270.721 3169.16C143.988 3126.7 61.8806 2907.99 79.2216 2786.24C105.02 2605.11 280.933 2587.51 370.377 2665.65C413.24 2703.1 464.597 2839.59 460.98 2916.88L572.1 3146.66Z" fill="white"/>
<path d="M572.101 3146.68C529.341 3158.2 371.381 3202.92 270.701 3169.16C197.741 3144.72 139.542 3061.88 106.661 2972.72C82.3825 2907 71.8615 2837.88 79.2215 2786.24C105.021 2605.12 280.941 2587.52 370.381 2665.64C389.061 2682 409.341 2717.16 425.981 2758C447.542 2810.88 463.021 2873.28 460.981 2916.88L572.101 3146.68Z" fill="white"/>
<path d="M572.101 3146.68C535.261 3156.6 413.021 3191.16 315.461 3178.96C299.74 3177.04 284.66 3173.84 270.7 3169.16C197.74 3144.72 139.542 3061.88 106.661 2972.72C82.3815 2907 71.8605 2837.88 79.2205 2786.24C80.6605 2776.08 82.5795 2766.48 84.9405 2757.36C124.462 2603.44 285.941 2591.88 370.381 2665.64C389.061 2682 409.34 2717.16 425.98 2758C447.542 2810.88 463.02 2873.28 460.98 2916.88L572.101 3146.68Z" fill="white"/>
<path d="M572.102 3146.68C529.342 3158.2 371.382 3202.92 270.702 3169.16C197.742 3144.72 139.543 3061.88 106.662 2972.72C117.142 2993.92 178.263 3104.92 302.102 3092.76C436.822 3079.48 461.182 2910.36 421.222 2761.2C422.822 2760.08 424.421 2759.04 425.982 2758C447.543 2810.88 463.022 2873.28 460.982 2916.88L572.102 3146.68Z" fill="#DFE8F4"/>
<path d="M315.462 3178.96C313.501 3178.72 311.542 3178.44 309.581 3178.16C307.661 3177.88 305.701 3177.6 303.781 3177.28C301.861 3176.96 299.981 3176.6 298.061 3176.24C296.181 3175.88 294.301 3175.52 292.42 3175.08C290.541 3174.68 288.7 3174.28 286.86 3173.8C285.02 3173.36 283.18 3172.88 281.38 3172.4C277.739 3171.4 274.18 3170.32 270.699 3169.16C197.739 3144.72 139.54 3061.88 106.659 2972.72C117.139 2993.92 178.26 3104.92 302.099 3092.76C359.379 3087.12 396.699 3053.32 417.578 3004.88C421.581 3090.24 395.501 3163.88 315.462 3178.96Z" fill="#949495"/>
<path d="M315.461 3178.96C299.74 3177.04 284.66 3173.84 270.7 3169.16C197.74 3144.72 139.542 3061.88 106.661 2972.72C82.3815 2907 71.8605 2837.88 79.2205 2786.24C80.6605 2776.08 82.5795 2766.48 84.9405 2757.36C117.42 2695.52 177.701 2646.52 287.141 2704C386.501 2762.16 509.381 3142.44 315.461 3178.96Z" fill="#AEAEB1"/>
<path d="M315.462 3178.96C313.501 3178.72 311.542 3178.44 309.581 3178.16C307.661 3177.88 305.701 3177.6 303.781 3177.28C301.861 3176.96 299.981 3176.6 298.061 3176.24C296.181 3175.88 294.301 3175.52 292.42 3175.08C290.541 3174.68 288.7 3174.28 286.86 3173.8C285.02 3173.36 283.18 3172.88 281.38 3172.4C277.739 3171.4 274.18 3170.32 270.699 3169.16C197.739 3144.72 139.54 3061.88 106.659 2972.72C117.139 2993.92 178.26 3104.92 302.099 3092.76C359.379 3087.12 396.699 3053.32 417.578 3004.88C421.581 3090.24 395.501 3163.88 315.462 3178.96Z" fill="#949495"/>
<path d="M576.264 3162.11C518.767 3177.98 459.474 3191.23 398.713 3195.97C368.319 3198.23 337.412 3198.43 306.325 3193.84C290.766 3191.51 275.323 3187.9 259.937 3182.29C244.604 3176.48 230.295 3168.59 217.254 3159.34C191.104 3140.79 169.712 3117.4 151.491 3092.41C133.303 3067.32 118.277 3040.37 105.674 3012.47C93.0937 2984.56 82.9657 2955.63 75.3367 2925.98C67.7707 2896.33 62.5507 2865.94 61.2237 2834.87C60.5567 2819.34 60.9427 2803.62 62.8927 2787.78C64.8807 2772.12 68.1407 2756.78 72.7627 2741.58C82.0247 2711.32 97.7767 2682.05 120.707 2658.73C143.495 2635.32 173.242 2618.76 204.786 2611.13C236.363 2603.39 269.512 2604.03 300.679 2611.97C316.274 2615.95 331.416 2621.76 345.672 2629.37C352.799 2633.18 359.703 2637.43 366.32 2642.12C369.62 2644.48 372.853 2646.94 376.018 2649.49L380.686 2653.42C382.304 2654.86 383.989 2656.38 385.595 2657.9C391.547 2664.29 396.144 2671.07 400.475 2677.8C404.788 2684.56 408.542 2691.43 412.068 2698.35C419.092 2712.18 425.048 2726.26 430.336 2740.5C440.91 2768.97 449.011 2798.06 454.747 2827.57C457.62 2842.31 459.791 2857.19 460.996 2872.13C462.249 2887.05 462.488 2902.08 460.98 2916.88C460.64 2902.01 458.56 2887.34 455.519 2872.92C452.504 2858.48 448.607 2844.27 444.114 2830.28C435.104 2802.3 423.849 2775.09 410.533 2749.23C403.888 2736.31 396.67 2723.74 388.763 2711.93C380.943 2700.17 372.082 2688.99 362.889 2680.67L359.67 2677.55L355.825 2674.32C353.213 2672.21 350.539 2670.18 347.807 2668.22C342.322 2664.33 336.569 2660.79 330.607 2657.61C318.684 2651.24 305.925 2646.34 292.769 2642.98C266.466 2636.27 238.512 2635.79 212.408 2642.21C186.292 2648.56 162.216 2662 143.544 2681.14C124.781 2700.24 111.423 2724.63 103.339 2751.02C99.3277 2764.2 96.3876 2777.98 94.6456 2791.76C92.9676 2805.38 92.5847 2819.42 93.1967 2833.53C94.3907 2861.77 99.2257 2890.21 106.332 2918.02C113.49 2945.85 123.045 2973.14 134.85 2999.33C146.666 3025.49 160.725 3050.63 177.385 3073.6C194.045 3096.49 213.376 3117.39 235.73 3133.21C246.876 3141.13 258.793 3147.63 271.204 3152.34C283.711 3156.89 297.28 3160.15 311.06 3162.19C338.733 3166.3 367.562 3166.21 396.289 3164.06C425.059 3161.85 453.862 3157.51 482.465 3151.83C511.137 3146.14 539.357 3139.07 567.939 3131.21L576.264 3162.11Z" fill="#451A1B"/>
<path d="M311.705 3184.77C295.328 3184.77 276.504 3182.12 254.863 3175.85L261.535 3152.8C317.155 3168.89 357.08 3160.78 380.19 3128.65C438.023 3048.28 383.005 2845.29 319.108 2752.87C287.053 2705.39 231.785 2682.02 181.509 2694.6C129.828 2707.54 96.0509 2754.83 88.8369 2824.35L64.9658 2821.88C73.2808 2741.72 113.636 2686.85 175.683 2671.32C235.714 2656.3 301.318 2683.63 338.923 2739.33C374.418 2790.67 405.422 2869.24 419.763 2944.28C436.362 3031.14 429.226 3101.6 399.67 3142.67C384.607 3163.6 357.932 3184.77 311.705 3184.77Z" fill="#451A1B"/>
<path d="M531.596 3169.4L521.829 3147.48C605.107 3110.37 626.553 2979.91 604.45 2876C586.358 2790.94 535.105 2700.05 445.517 2700.05V2676.05C549.432 2676.05 607.878 2776.76 627.924 2871C652.591 2986.97 627.424 3126.71 531.596 3169.4Z" fill="#451A1B"/>
<path d="M315.694 2721.35L77.2666 2787.41L83.6746 2810.54L322.102 2744.48L315.694 2721.35Z" fill="#451A1B"/>
<path d="M374.202 2828.87L86.8813 2907.35L93.2056 2930.5L380.526 2852.02L374.202 2828.87Z" fill="#451A1B"/>
<path d="M405.609 2939.4L129.212 3019.52L135.894 3042.57L412.291 2962.46L405.609 2939.4Z" fill="#451A1B"/>
<path d="M410.662 3056.69L204.032 3119.73L211.035 3142.68L417.664 3079.64L410.662 3056.69Z" fill="#451A1B"/>
<path d="M1336.5 3033L1768.97 3146.66C1768.97 3146.66 1889.09 3160.41 1972.2 3160.41C2140.99 3160.41 2191.16 2898.12 2191.16 2898.12L2013.74 2724.71L1564.22 2585.28" fill="#F0F7FF"/>
<path d="M1336.5 3033.01L1768.94 3146.69C1768.94 3146.69 1889.1 3160.45 1972.18 3160.45C2140.98 3160.45 2191.18 2898.13 2191.18 2898.13L2055.82 2765.85L2013.74 2724.69L1962.82 2708.89L1946.06 2725.97C1877.38 2765.45 1876.52 2926.75 1751.5 2900.69C1659.8 2881.57 1620.3 2733.07 1778.78 2651.81L1679.42 2621.01L1574.26 2588.37L1564.22 2585.29L1529.1 2654.33L1336.5 3033.01Z" fill="#CBDDEF"/>
<path d="M1972.2 3176.41C1889.13 3176.41 1772.09 3163.12 1767.15 3162.55L1764.9 3162.13L1332.43 3048.47C1323.88 3046.23 1318.78 3037.48 1321.02 3028.93C1323.27 3020.39 1332.01 3015.27 1340.56 3017.53L1771.91 3130.89C1784.28 3132.27 1895.21 3144.41 1972.2 3144.41C2109.66 3144.41 2163.51 2946.57 2173.63 2903.36L2005.31 2738.85L1559.48 2600.56C1551.04 2597.94 1546.32 2588.98 1548.93 2580.54C1551.55 2572.1 1560.52 2567.38 1568.96 2570L2022.16 2710.57L2208.49 2892.69L2206.87 2901.13C2204.72 2912.37 2152.15 3176.41 1972.2 3176.41Z" fill="#451A1B"/>
<path d="M1768.97 3146.66C1811.72 3158.18 1969.68 3202.9 2070.35 3169.16C2197.08 3126.7 2279.19 2907.99 2261.85 2786.24C2236.05 2605.11 2060.14 2587.51 1970.69 2665.65C1927.83 2703.1 1876.47 2839.59 1880.09 2916.88L1768.97 3146.66Z" fill="white"/>
<path d="M1768.97 3146.68C1811.73 3158.2 1969.69 3202.92 2070.37 3169.16C2143.33 3144.72 2201.53 3061.88 2234.41 2972.72C2258.69 2907 2269.21 2837.88 2261.85 2786.24C2236.05 2605.12 2060.13 2587.52 1970.69 2665.64C1952.01 2682 1931.73 2717.16 1915.09 2758C1893.53 2810.88 1878.05 2873.28 1880.09 2916.88L1768.97 3146.68Z" fill="white"/>
<path d="M1768.97 3146.68C1805.81 3156.6 1928.05 3191.16 2025.61 3178.96C2041.33 3177.04 2056.41 3173.84 2070.37 3169.16C2143.33 3144.72 2201.53 3061.88 2234.41 2972.72C2258.69 2907 2269.21 2837.88 2261.85 2786.24C2260.41 2776.08 2258.49 2766.48 2256.13 2757.36C2216.61 2603.44 2055.13 2591.88 1970.69 2665.64C1952.01 2682 1931.73 2717.16 1915.09 2758C1893.53 2810.88 1878.05 2873.28 1880.09 2916.88L1768.97 3146.68Z" fill="#F0F7FF"/>
<path d="M1768.97 3146.68C1811.73 3158.2 1969.69 3202.92 2070.37 3169.16C2143.33 3144.72 2201.53 3061.88 2234.41 2972.72C2223.93 2993.92 2162.81 3104.92 2038.97 3092.76C1904.25 3079.48 1879.89 2910.36 1919.85 2761.2C1918.25 2760.08 1916.65 2759.04 1915.09 2758C1893.53 2810.88 1878.05 2873.28 1880.09 2916.88L1768.97 3146.68Z" fill="#CBDDEF"/>
<path d="M2025.61 3178.96C2027.57 3178.72 2029.53 3178.44 2031.49 3178.16C2033.41 3177.88 2035.37 3177.6 2037.29 3177.28C2039.21 3176.96 2041.09 3176.6 2043.01 3176.24C2044.89 3175.88 2046.77 3175.52 2048.65 3175.08C2050.53 3174.68 2052.37 3174.28 2054.21 3173.8C2056.05 3173.36 2057.89 3172.88 2059.69 3172.4C2063.33 3171.4 2066.89 3170.32 2070.37 3169.16C2143.33 3144.72 2201.53 3061.88 2234.41 2972.72C2223.93 2993.92 2162.81 3104.92 2038.97 3092.76C1981.69 3087.12 1944.37 3053.32 1923.49 3004.88C1919.49 3090.24 1945.57 3163.88 2025.61 3178.96Z" fill="#949495"/>
<path d="M2025.61 3178.96C2041.33 3177.04 2056.41 3173.84 2070.37 3169.16C2143.33 3144.72 2201.53 3061.88 2234.41 2972.72C2258.69 2907 2269.21 2837.88 2261.85 2786.24C2260.41 2776.08 2258.49 2766.48 2256.13 2757.36C2223.65 2695.52 2163.37 2646.52 2053.93 2704C1954.57 2762.16 1831.69 3142.44 2025.61 3178.96Z" fill="#AEAEB1"/>
<path d="M2025.61 3178.96C2027.57 3178.72 2029.53 3178.44 2031.49 3178.16C2033.41 3177.88 2035.37 3177.6 2037.29 3177.28C2039.21 3176.96 2041.09 3176.6 2043.01 3176.24C2044.89 3175.88 2046.77 3175.52 2048.65 3175.08C2050.53 3174.68 2052.37 3174.28 2054.21 3173.8C2056.05 3173.36 2057.89 3172.88 2059.69 3172.4C2063.33 3171.4 2066.89 3170.32 2070.37 3169.16C2143.33 3144.72 2201.53 3061.88 2234.41 2972.72C2223.93 2993.92 2162.81 3104.92 2038.97 3092.76C1981.69 3087.12 1944.37 3053.32 1923.49 3004.88C1919.49 3090.24 1945.57 3163.88 2025.61 3178.96Z" fill="#949495"/>
<path d="M1773.13 3131.21C1801.71 3139.07 1829.93 3146.14 1858.61 3151.82C1887.21 3157.5 1916.01 3161.85 1944.78 3164.06C1973.51 3166.21 2002.34 3166.3 2030.01 3162.19C2043.79 3160.14 2057.36 3156.88 2069.87 3152.34C2082.28 3147.62 2094.19 3141.12 2105.34 3133.21C2127.69 3117.39 2147.03 3096.49 2163.69 3073.6C2180.35 3050.63 2194.4 3025.49 2206.22 2999.32C2218.03 2973.14 2227.58 2945.85 2234.74 2918.02C2241.84 2890.21 2246.68 2861.77 2247.87 2833.53C2248.49 2819.42 2248.1 2805.37 2246.42 2791.76C2244.68 2777.98 2241.74 2764.2 2237.73 2751.02C2229.65 2724.63 2216.29 2700.24 2197.53 2681.14C2178.85 2662 2154.78 2648.56 2128.66 2642.21C2102.56 2635.79 2074.6 2636.27 2048.3 2642.98C2035.15 2646.33 2022.39 2651.24 2010.46 2657.6C2004.5 2660.79 1998.75 2664.33 1993.26 2668.22C1990.53 2670.18 1987.86 2672.21 1985.24 2674.32L1981.4 2677.55L1978.18 2680.67C1968.99 2688.98 1960.13 2700.17 1952.31 2711.93C1944.4 2723.74 1937.18 2736.31 1930.54 2749.23C1917.22 2775.08 1905.97 2802.3 1896.96 2830.27C1892.46 2844.27 1888.56 2858.48 1885.55 2872.92C1882.51 2887.34 1880.43 2902.01 1880.09 2916.88C1878.58 2902.08 1878.82 2887.05 1880.07 2872.13C1881.28 2857.19 1883.45 2842.31 1886.32 2827.56C1892.06 2798.06 1900.16 2768.97 1910.73 2740.5C1916.02 2726.26 1921.98 2712.18 1929 2698.35C1932.53 2691.43 1936.28 2684.56 1940.6 2677.8C1944.93 2671.07 1949.52 2664.29 1955.47 2657.9C1957.08 2656.38 1958.77 2654.86 1960.38 2653.42L1965.05 2649.49C1968.22 2646.94 1971.45 2644.48 1974.75 2642.12C1981.37 2637.43 1988.27 2633.17 1995.4 2629.37C2009.65 2621.76 2024.8 2615.95 2040.39 2611.97C2071.56 2604.03 2104.71 2603.39 2136.28 2611.13C2167.83 2618.76 2197.58 2635.32 2220.36 2658.72C2243.29 2682.05 2259.05 2711.31 2268.31 2741.57C2272.93 2756.78 2276.19 2772.12 2278.18 2787.78C2280.13 2803.62 2280.51 2819.34 2279.85 2834.87C2278.52 2865.94 2273.3 2896.33 2265.73 2925.98C2258.1 2955.63 2247.98 2984.56 2235.4 3012.47C2222.79 3040.37 2207.77 3067.32 2189.58 3092.4C2171.36 3117.39 2149.97 3140.79 2123.82 3159.33C2110.78 3168.59 2096.47 3176.47 2081.13 3182.29C2065.75 3187.89 2050.3 3191.5 2034.75 3193.84C2003.66 3198.43 1972.75 3198.23 1942.36 3195.97C1881.6 3191.23 1822.3 3177.98 1764.81 3162.11L1773.13 3131.21Z" fill="#451A1B"/>
<path d="M2029.36 3184.77C1983.13 3184.77 1956.46 3163.61 1941.4 3142.67C1911.84 3101.6 1904.71 3031.14 1921.31 2944.29C1935.65 2869.24 1966.65 2790.67 2002.22 2739.23C2039.75 2683.63 2105.36 2656.3 2165.38 2671.32C2227.43 2686.85 2267.79 2741.72 2276.1 2821.88L2252.23 2824.36C2245.02 2754.83 2211.24 2707.54 2159.56 2694.6C2109.28 2682.03 2054.02 2705.39 2022.04 2752.77C1958.06 2845.29 1903.05 3048.29 1960.88 3128.66C1983.99 3160.77 2023.91 3168.89 2079.53 3152.8L2086.21 3175.86C2064.57 3182.12 2045.74 3184.77 2029.36 3184.77Z" fill="#451A1B"/>
<path d="M1809.47 3169.4C1713.65 3126.71 1688.48 2986.97 1713.14 2871C1733.19 2776.76 1791.64 2676.05 1895.55 2676.05V2700.05C1805.96 2700.05 1754.71 2790.94 1736.62 2876C1714.52 2979.91 1735.96 3110.37 1819.24 3147.48L1809.47 3169.4Z" fill="#451A1B"/>
<path d="M2025.45 2721.35L2019.04 2744.48L2257.47 2810.56L2263.88 2787.43L2025.45 2721.35Z" fill="#451A1B"/>
<path d="M1967.06 2828.65L1960.73 2851.8L2248.05 2930.28L2254.38 2907.13L1967.06 2828.65Z" fill="#451A1B"/>
<path d="M1935.76 2939.32L1929.08 2962.38L2205.47 3042.49L2212.16 3019.44L1935.76 2939.32Z" fill="#451A1B"/>
<path d="M1930.63 3056.79L1923.63 3079.74L2130.26 3142.78L2137.26 3119.82L1930.63 3056.79Z" fill="#451A1B"/>
<path d="M817.698 2282.97C815.788 2282.63 813.878 2282.3 812.01 2281.89C812.84 2281.97 814.916 2282.22 817.698 2282.97Z" fill="#FFAD40"/>
<path d="M1490.04 2003.3C1622.87 2239.93 1758.71 2528.24 1679.35 2745.16L1476.21 3008.52C1434.01 3032.87 1337.59 3077.18 1170.63 3077.18C1003.68 3077.18 907.255 3032.86 865.054 3008.52L661.913 2745.16C582.558 2528.24 718.397 2239.93 851.223 2003.3C851.223 2003.3 978.675 1731.52 1170.63 1731.52C1362.59 1731.52 1490.04 2003.3 1490.04 2003.3Z" fill="white"/>
<path d="M1500.51 2022.13C1405.83 2048.09 1292.47 2063.17 1170.63 2063.17C1048.79 2063.17 935.434 2048.09 840.754 2022.13C844.233 2015.81 847.714 2009.53 851.233 2003.29C851.233 2003.29 978.673 1731.53 1170.63 1731.53C1362.59 1731.53 1490.03 2003.29 1490.03 2003.29C1493.55 2009.53 1497.03 2015.81 1500.51 2022.13Z" fill="#DFE8F4"/>
<path d="M1679.36 2745.17L1476.2 3008.53C1434 3032.85 1337.6 3077.17 1170.64 3077.17C1003.68 3077.17 907.241 3032.85 865.041 3008.53L661.921 2745.17C639.961 2685.09 634.481 2619.53 640.881 2551.13C726.801 2603.69 900.641 2682.41 1170.64 2682.41C1440.64 2682.41 1614.48 2603.69 1700.4 2551.13C1706.8 2619.53 1701.32 2685.09 1679.36 2745.17Z" fill="#DFE8F4"/>
<path d="M851.223 2003.3C823.629 2063.07 795.35 2122.25 769.341 2182.24C756.175 2212.15 743.536 2242.23 731.807 2272.61C719.935 2302.92 708.779 2333.45 698.807 2364.28C688.733 2395.08 679.886 2426.2 672.589 2457.57C665.42 2488.98 659.635 2520.59 655.712 2552.38C651.835 2584.18 649.915 2616.18 650.742 2648.31C651.575 2680.46 655.223 2712.67 661.914 2745.16C646.248 2715.91 636.183 2683.43 630.638 2650.28C625.061 2617.08 623.954 2583.15 626.141 2549.62C628.293 2516.04 633.802 2482.84 641.53 2450.33C649.149 2417.78 658.827 2385.85 669.781 2354.47C680.85 2323.13 693.25 2292.35 706.713 2262.11C720.328 2231.94 734.82 2202.24 750.069 2172.98C780.913 2114.63 814.579 2057.99 851.223 2003.3Z" fill="#451A1B"/>
<path d="M888.519 2398.22C888.519 2398.22 714.693 2384.97 641.525 2437.65C563.77 2493.63 642.108 2558.4 642.108 2558.4C642.108 2558.4 782.106 2527.85 899.672 2532.2L888.519 2398.22Z" fill="white"/>
<path d="M648.783 2558.42C648.783 2558.42 788.821 2527.85 906.357 2532.21L902.142 2481.32C820.433 2478.83 728.85 2492.74 681.339 2501.3C656.082 2505.85 630.476 2493.13 619.981 2469.71C619.88 2469.48 619.778 2469.25 619.679 2469.03C596.669 2515.3 648.783 2558.42 648.783 2558.42Z" fill="#DFE8F4"/>
<path d="M637.914 2575.69L631.913 2570.73C630.188 2569.31 589.683 2535.3 591.157 2491.2C591.999 2466.04 605.799 2443.66 632.177 2424.67C709.198 2369.21 882.399 2381.7 889.737 2382.27L903.334 2383.31L917.114 2548.86L899.08 2548.19C784.979 2543.98 646.901 2573.74 645.52 2574.04L637.914 2575.69ZM840.174 2412.76C785.125 2412.76 695.887 2418.23 650.873 2450.63C633.006 2463.5 623.677 2477.47 623.143 2492.16C622.387 2512.99 638.369 2532.22 646.999 2541.04C677.326 2534.88 783.723 2514.93 882.25 2515.8L873.73 2413.45C865.476 2413.1 853.885 2412.76 840.174 2412.76Z" fill="#44191A"/>
<path d="M1463.72 2346.43V2593.95C1463.72 2639.88 1427.54 2677.46 1383.36 2677.46H944.459C900.228 2677.46 864.094 2639.88 864.094 2593.95V2346.43C864.094 2300.55 900.228 2262.97 944.459 2262.97H1383.36C1418.65 2262.97 1448.86 2286.96 1459.58 2320.03C1462.24 2328.33 1463.72 2337.2 1463.72 2346.43Z" fill="white"/>
<path d="M1463.72 2346.43V2593.95C1463.72 2639.88 1427.54 2677.46 1383.36 2677.46H944.459C900.228 2677.46 864.094 2639.88 864.094 2593.95V2510.64C939.818 2554.16 1089.84 2619.53 1240.4 2565.6C1313.95 2539.23 1398.28 2448.87 1398.28 2448.87C1398.28 2448.87 1401.53 2543.68 1415.07 2542.18C1452.73 2538.02 1452.46 2346.19 1459.58 2320.03C1462.24 2328.34 1463.72 2337.2 1463.72 2346.43Z" fill="#DFE8F4"/>
<path d="M1402.79 2693.43H924.994C882.578 2693.43 848.069 2658.93 848.069 2616.51V2323.9C848.069 2281.48 882.578 2246.97 924.994 2246.97H1402.79C1445.21 2246.97 1479.72 2281.48 1479.72 2323.9V2616.51C1479.71 2658.93 1445.21 2693.43 1402.79 2693.43ZM924.994 2278.97C900.223 2278.97 880.069 2299.13 880.069 2323.9V2616.51C880.069 2641.28 900.222 2661.44 924.994 2661.44H1402.79C1427.56 2661.44 1447.72 2641.28 1447.72 2616.51V2323.9C1447.72 2299.13 1427.56 2278.97 1402.79 2278.97H924.994Z" fill="#44191A"/>
<path d="M1319.38 2542.18C1357.66 2542.18 1388.69 2509.96 1388.69 2470.2C1388.69 2430.45 1357.66 2398.22 1319.38 2398.22C1281.1 2398.22 1250.07 2430.45 1250.07 2470.2C1250.07 2509.96 1281.1 2542.18 1319.38 2542.18Z" fill="#22A7F0"/>
<path d="M1388.71 2470.22C1388.71 2475.13 1388.25 2479.89 1387.34 2484.51C1380.94 2451.55 1352.93 2426.75 1319.37 2426.75C1285.81 2426.75 1257.8 2451.55 1251.44 2484.51C1250.53 2479.89 1250.08 2475.13 1250.08 2470.22C1250.08 2430.47 1281.09 2398.22 1319.37 2398.22C1357.65 2398.22 1388.71 2430.47 1388.71 2470.22Z" fill="white"/>
<path d="M1388.69 2470.19C1388.69 2509.97 1357.64 2542.17 1319.38 2542.17C1281.12 2542.17 1250.07 2509.97 1250.07 2470.19C1250.07 2463.52 1250.96 2457.01 1252.59 2450.91C1260.74 2481.26 1287.59 2503.56 1319.38 2503.56C1351.17 2503.56 1378.03 2481.26 1386.17 2450.91C1387.8 2457.01 1388.69 2463.52 1388.69 2470.19Z" fill="#1C7AEA"/>
<path d="M1319.38 2554.18C1274.55 2554.18 1238.07 2516.51 1238.07 2470.2C1238.07 2423.9 1274.55 2386.22 1319.38 2386.22C1364.22 2386.22 1400.69 2423.9 1400.69 2470.2C1400.69 2516.51 1364.21 2554.18 1319.38 2554.18ZM1319.38 2410.22C1287.78 2410.22 1262.07 2437.13 1262.07 2470.2C1262.07 2503.28 1287.78 2530.18 1319.38 2530.18C1350.98 2530.18 1376.69 2503.28 1376.69 2470.2C1376.69 2437.13 1350.98 2410.22 1319.38 2410.22Z" fill="#44191A"/>
<path d="M1100.01 2689.43C1093.39 2689.43 1088.01 2684.06 1088.01 2677.43V2550.75C1088.01 2523.23 1075.41 2496.94 1054.3 2480.44L1043.16 2471.72C1016.28 2450.71 1000.23 2417.36 1000.23 2382.51V2262.97C1000.23 2256.34 1005.61 2250.97 1012.23 2250.97C1018.86 2250.97 1024.23 2256.34 1024.23 2262.97V2382.51C1024.23 2410.03 1036.84 2436.32 1057.94 2452.82L1069.09 2461.53C1095.96 2482.55 1112.01 2515.9 1112.01 2550.75V2677.43C1112.01 2684.06 1106.64 2689.43 1100.01 2689.43Z" fill="#44191A"/>
<path d="M1500.51 2022.13C1405.83 2048.09 1292.47 2063.17 1170.63 2063.17C1166.11 2063.17 1161.63 2063.13 1157.15 2063.09C1173.03 2019.69 1315.27 1896.05 1319.71 1892.17C1319.79 1892.13 1319.83 1892.09 1319.83 1892.09C1337.71 1876.85 1371.39 1874.61 1412.59 1880.21C1462.07 1943.61 1490.03 2003.29 1490.03 2003.29C1493.55 2009.53 1497.03 2015.81 1500.51 2022.13Z" fill="#CBDDEF"/>
<path d="M1679.35 2745.13L1476.19 3008.49C1439.55 3029.65 1361.99 3065.85 1232.87 3075.01C1232.87 3075.01 1277.79 2988.73 1261.79 2962.73C1252.27 2947.25 1130.19 2920.81 1125.79 2905.73C1121.55 2891.21 1194.79 2814.13 1199.79 2782.73C1204.63 2752.25 1093.27 2739.45 1091.79 2711.65C1091.51 2706.41 1097.31 2694.89 1105.87 2680.85C1126.79 2681.89 1148.39 2682.41 1170.63 2682.41C1440.63 2682.41 1614.47 2603.69 1700.39 2551.13C1706.79 2619.53 1701.31 2685.05 1679.35 2745.13Z" fill="#CBDDEF"/>
<path d="M1679.35 2745.15L1476.19 3008.51C1439.55 3029.67 1361.99 3065.87 1232.87 3075.03C1232.87 3075.03 1277.79 2988.75 1261.79 2962.75C1252.27 2947.27 1130.19 2920.83 1125.79 2905.75C1121.55 2891.23 1194.79 2814.15 1199.79 2782.75C1204.63 2752.27 1093.27 2739.47 1091.79 2711.67C1090.79 2692.75 1168.67 2592.23 1170.63 2585.23C1176.67 2563.91 1066.47 2409.83 1062.47 2389.07C1058.47 2368.35 1202.87 2210.43 1201.55 2186.43C1200.23 2162.43 1149.27 2084.79 1157.12 2063.19C1172.88 2019.87 1315.28 1896.07 1319.71 1892.19C1319.79 1892.15 1319.83 1892.11 1319.83 1892.11C1337.71 1876.87 1371.39 1874.63 1412.59 1880.23C1462.08 1943.63 1490.03 2003.31 1490.03 2003.31C1622.87 2239.91 1758.71 2528.23 1679.35 2745.15Z" fill="#F0F7FF"/>
<path d="M1679.35 2745.13L1476.19 3008.49C1439.55 3029.65 1361.99 3065.85 1232.87 3075.01C1232.87 3075.01 1277.79 2988.73 1261.79 2962.73C1252.27 2947.25 1130.19 2920.81 1125.79 2905.73C1121.55 2891.21 1194.79 2814.13 1199.79 2782.73C1204.63 2752.25 1093.27 2739.45 1091.79 2711.65C1091.51 2706.41 1097.31 2694.89 1105.87 2680.85C1126.79 2681.89 1148.39 2682.41 1170.63 2682.41C1440.63 2682.41 1614.47 2603.69 1700.39 2551.13C1706.79 2619.53 1701.31 2685.05 1679.35 2745.13Z" fill="#CBDDEF"/>
<path d="M1500.51 2022.13C1405.83 2048.09 1292.47 2063.17 1170.63 2063.17C1166.11 2063.17 1161.63 2063.13 1157.15 2063.09C1173.03 2019.69 1315.27 1896.05 1319.71 1892.17C1319.79 1892.13 1319.83 1892.09 1319.83 1892.09C1337.71 1876.85 1371.39 1874.61 1412.59 1880.21C1462.07 1943.61 1490.03 2003.29 1490.03 2003.29C1493.55 2009.53 1497.03 2015.81 1500.51 2022.13Z" fill="#CBDDEF"/>
<path d="M1247.08 3082.42L1218.69 3067.65C1239.31 3027.98 1253.14 2983.6 1248.67 2972.15C1241.04 2966.8 1210.06 2956.79 1189.3 2950.08C1133.2 2931.95 1114.7 2924.86 1110.44 2910.23C1106.36 2896.26 1117.05 2880.98 1143.8 2844.68C1159.39 2823.51 1180.56 2794.78 1183.74 2781.51C1178.71 2774.97 1152.99 2765.16 1138.92 2759.79C1105.73 2747.13 1077.07 2736.2 1075.82 2712.51C1075.06 2698.11 1089.05 2673.9 1138.22 2604.6C1144.42 2595.85 1151.29 2586.17 1154.47 2581.32C1150 2564.09 1113.53 2506.12 1091.32 2470.83C1060.56 2421.93 1048.75 2402.48 1046.75 2392.11C1043.76 2376.62 1058.48 2355.33 1118.55 2278.92C1143.63 2247.03 1181.26 2199.17 1185.46 2186.2C1184.18 2178.12 1174.11 2157.17 1166.67 2141.67C1147.21 2101.2 1135.62 2075.49 1142.09 2057.7C1159.02 2011.14 1294.01 1893.31 1309.35 1880.03L1330.29 1904.21C1275.03 1952.08 1183.56 2038.7 1172.3 2068.26C1171.26 2077.36 1187.02 2110.14 1195.51 2127.81C1208.7 2155.26 1216.82 2172.73 1217.53 2185.52C1218.4 2201.17 1201.68 2224.97 1143.71 2298.7C1119.97 2328.9 1084.67 2373.79 1078.89 2387.77C1083.43 2398.18 1102.7 2428.8 1118.41 2453.78C1174.19 2542.44 1190.8 2572.75 1186.04 2589.59C1184.75 2594.12 1182.11 2598.03 1164.32 2623.11C1148.83 2644.94 1113.53 2694.7 1108.28 2710.16C1114.13 2716.08 1136.56 2724.64 1150.33 2729.89C1184.67 2742.99 1220.17 2756.53 1215.6 2785.26C1212.59 2804.15 1195.42 2828.56 1169.56 2863.65C1160.77 2875.59 1149.42 2891 1144.2 2900.05C1156 2905.68 1181.31 2913.87 1199.14 2919.63C1248.89 2935.7 1268.35 2942.86 1275.42 2954.36C1294.68 2985.65 1258.6 3060.29 1247.08 3082.42ZM1107.73 2712.18C1107.73 2712.18 1107.73 2712.18 1107.73 2712.18ZM1185.68 2185.41C1185.68 2185.41 1185.68 2185.41 1185.68 2185.41C1185.68 2185.41 1185.68 2185.41 1185.68 2185.41Z" fill="#363D56"/>
<path d="M1247.08 3082.42L1218.69 3067.65C1239.31 3027.98 1253.14 2983.6 1248.67 2972.15C1241.04 2966.8 1210.06 2956.79 1189.3 2950.08C1133.2 2931.95 1114.7 2924.86 1110.44 2910.23C1106.36 2896.26 1117.05 2880.98 1143.8 2844.68C1159.39 2823.51 1180.56 2794.78 1183.74 2781.51C1178.71 2774.97 1152.99 2765.16 1138.92 2759.79C1105.73 2747.13 1077.07 2736.2 1075.82 2712.51C1075.06 2698.11 1089.05 2673.9 1138.22 2604.6C1144.42 2595.85 1151.29 2586.17 1154.47 2581.32C1150 2564.09 1113.53 2506.12 1091.32 2470.83C1060.56 2421.93 1048.75 2402.48 1046.75 2392.11C1043.76 2376.62 1058.48 2355.33 1118.55 2278.92C1143.63 2247.03 1181.26 2199.17 1185.46 2186.2C1184.18 2178.12 1174.11 2157.17 1166.67 2141.67C1147.21 2101.2 1135.62 2075.49 1142.09 2057.7C1159.02 2011.14 1294.01 1893.31 1309.35 1880.03L1330.29 1904.21C1275.03 1952.08 1183.56 2038.7 1172.3 2068.26C1171.26 2077.36 1187.02 2110.14 1195.51 2127.81C1208.7 2155.26 1216.82 2172.73 1217.53 2185.52C1218.4 2201.17 1201.68 2224.97 1143.71 2298.7C1119.97 2328.9 1084.67 2373.79 1078.89 2387.77C1083.43 2398.18 1102.7 2428.8 1118.41 2453.78C1174.19 2542.44 1190.8 2572.75 1186.04 2589.59C1184.75 2594.12 1182.11 2598.03 1164.32 2623.11C1148.83 2644.94 1113.53 2694.7 1108.28 2710.16C1114.13 2716.08 1136.56 2724.64 1150.33 2729.89C1184.67 2742.99 1220.17 2756.53 1215.6 2785.26C1212.59 2804.15 1195.42 2828.56 1169.56 2863.65C1160.77 2875.59 1149.42 2891 1144.2 2900.05C1156 2905.68 1181.31 2913.87 1199.14 2919.63C1248.89 2935.7 1268.35 2942.86 1275.42 2954.36C1294.68 2985.65 1258.6 3060.29 1247.08 3082.42ZM1107.73 2712.18C1107.73 2712.18 1107.73 2712.18 1107.73 2712.18ZM1185.68 2185.41C1185.68 2185.41 1185.68 2185.41 1185.68 2185.41C1185.68 2185.41 1185.68 2185.41 1185.68 2185.41Z" fill="#363D56"/>
<path d="M1490.04 2003.3C1526.69 2057.99 1560.35 2114.63 1591.2 2172.98C1606.45 2202.24 1620.94 2231.94 1634.55 2262.11C1648.02 2292.35 1660.42 2323.13 1671.48 2354.47C1682.44 2385.85 1692.12 2417.78 1699.74 2450.33C1707.46 2482.84 1712.97 2516.04 1715.12 2549.62C1717.31 2583.15 1716.2 2617.08 1710.63 2650.28C1705.08 2683.43 1695.02 2715.91 1679.35 2745.16C1686.04 2712.67 1689.69 2680.45 1690.52 2648.31C1691.35 2616.18 1689.43 2584.18 1685.55 2552.38C1681.63 2520.59 1675.85 2488.98 1668.68 2457.57C1661.38 2426.2 1652.53 2395.08 1642.46 2364.28C1632.49 2333.45 1621.33 2302.92 1609.46 2272.61C1597.73 2242.23 1585.09 2212.15 1571.92 2182.24C1545.91 2122.25 1517.63 2063.07 1490.04 2003.3Z" fill="#451A1B"/>
<path d="M1319.83 2432.11C1319.83 2514.47 1253.07 2581.19 1170.71 2581.23C1169.43 2571.83 1159.71 2552.83 1146.63 2530.31C1123.19 2489.99 1088.87 2438.19 1072.19 2409.15C1066.71 2399.59 1063.15 2392.51 1062.47 2389.07C1060.47 2378.63 1096 2333.51 1131.63 2288.15C1144.07 2284.75 1157.16 2282.95 1170.67 2282.95C1253.03 2282.95 1319.83 2349.75 1319.83 2432.11Z" fill="#F0F7FF"/>
<path d="M1319.83 2432.09C1319.83 2514.45 1253.07 2581.17 1170.71 2581.21C1169.83 2574.69 1164.91 2563.61 1157.59 2549.93C1154.35 2543.85 1150.63 2537.25 1146.63 2530.29C1123.19 2489.97 1088.87 2438.17 1072.19 2409.13C1066.71 2399.57 1063.15 2392.49 1062.47 2389.05C1061.51 2384.05 1069.11 2371.21 1081.15 2354.17C1094.39 2335.49 1112.99 2311.85 1131.63 2288.13C1144.07 2284.73 1157.15 2282.93 1170.67 2282.93C1253.03 2282.93 1319.83 2349.73 1319.83 2432.09Z" fill="#F0F7FF"/>
<path d="M1319.83 2432.09C1319.83 2514.45 1253.07 2581.17 1170.71 2581.21C1169.43 2571.81 1159.71 2552.81 1146.63 2530.29C1123.19 2489.97 1088.87 2438.17 1072.19 2409.13C1066.71 2399.57 1063.15 2392.49 1062.47 2389.05C1061.71 2385.05 1066.43 2375.97 1074.55 2363.77C1091.99 2393.41 1124.27 2442.33 1146.63 2480.81C1159.71 2503.33 1169.43 2522.33 1170.71 2531.73C1244.63 2531.69 1305.99 2477.93 1317.79 2407.37C1319.15 2415.41 1319.83 2423.69 1319.83 2432.09Z" fill="#CBDDEF"/>
<path d="M1160.24 2593.23L1158.82 2582.85C1158.32 2579.11 1154.71 2568.1 1136.26 2536.33C1124.08 2515.39 1109.19 2491.71 1094.78 2468.8C1081.96 2448.41 1069.85 2429.16 1061.79 2415.12C1053.21 2400.16 1051.39 2394.88 1050.7 2391.39C1048.05 2377.54 1063.4 2355.57 1121.46 2281.67L1124.65 2277.62L1128.47 2276.57C1142.13 2272.84 1156.33 2270.95 1170.68 2270.95C1259.54 2270.95 1331.84 2343.24 1331.84 2432.11C1331.84 2520.91 1259.56 2593.18 1170.72 2593.23L1160.24 2593.23ZM1074.6 2387.78C1075.28 2389.51 1077.23 2393.8 1082.61 2403.18C1090.42 2416.79 1102.41 2435.84 1115.09 2456.02C1129.61 2479.1 1144.62 2502.97 1157.01 2524.28C1168.6 2544.23 1175.94 2558.62 1179.72 2568.93C1251.14 2564.24 1307.83 2504.65 1307.83 2432.11C1307.83 2356.48 1246.3 2294.95 1170.67 2294.95C1159.78 2294.95 1149 2296.23 1138.56 2298.75C1112.52 2331.91 1078.34 2375.57 1074.6 2387.78Z" fill="#451A1B"/>
<path d="M1288.99 2432.09C1288.99 2497.57 1235.91 2550.65 1170.43 2550.65C1166.11 2550.65 1161.83 2550.41 1157.59 2549.93C1154.35 2543.85 1150.63 2537.25 1146.63 2530.29C1123.19 2489.97 1088.87 2438.17 1072.19 2409.13C1066.71 2399.57 1063.15 2392.49 1062.47 2389.05C1061.51 2384.05 1069.11 2371.21 1081.15 2354.17C1102.91 2329.29 1134.83 2313.57 1170.43 2313.57C1235.91 2313.57 1288.99 2366.65 1288.99 2432.09Z" fill="#CBDDEF"/>
<path d="M1271.79 2432.11C1271.79 2487.95 1226.51 2533.23 1170.67 2533.23C1162.39 2533.23 1154.35 2532.23 1146.63 2530.31C1123.19 2489.99 1088.87 2438.19 1072.19 2409.15C1082.59 2364.35 1122.75 2330.99 1170.67 2330.99C1226.51 2330.99 1271.79 2376.27 1271.79 2432.11Z" fill="#FF6669"/>
<path d="M1271.79 2432.09C1271.79 2487.93 1226.51 2533.21 1170.67 2533.21C1162.39 2533.21 1154.35 2532.21 1146.63 2530.29C1123.19 2489.97 1088.87 2438.17 1072.19 2409.13C1072.19 2409.13 1117.67 2482.68 1146.63 2484.81C1154.35 2486.73 1162.39 2487.73 1170.67 2487.73C1218.67 2487.73 1258.87 2454.25 1269.19 2409.37C1270.91 2416.65 1271.79 2424.29 1271.79 2432.09Z" fill="#ED4A4D"/>
<path d="M1170.67 2545.23C1161.54 2545.23 1152.48 2544.12 1143.74 2541.95L1138.81 2540.73L1136.26 2536.34C1124.08 2515.39 1109.19 2491.7 1094.78 2468.79C1081.96 2448.41 1069.85 2429.16 1061.79 2415.12L1059.44 2411.03L1060.51 2406.43C1072.46 2354.94 1117.76 2318.98 1170.68 2318.98C1233.05 2318.98 1283.8 2369.73 1283.8 2432.11C1283.8 2494.48 1233.05 2545.23 1170.67 2545.23ZM1154.34 2519.71C1159.68 2520.72 1165.16 2521.23 1170.68 2521.23C1219.82 2521.23 1259.8 2481.25 1259.8 2432.11C1259.8 2382.97 1219.82 2342.99 1170.68 2342.99C1130.54 2342.99 1095.97 2369.23 1085.05 2407.37C1092.81 2420.58 1103.66 2437.84 1115.1 2456.02C1128.58 2477.47 1142.5 2499.59 1154.34 2519.71Z" fill="#451A1B"/>
<g opacity="0.4">
<path d="M1197.29 2441.49C1217.18 2441.49 1233.3 2425.37 1233.3 2405.49C1233.3 2385.61 1217.18 2369.49 1197.29 2369.49C1177.41 2369.49 1161.29 2385.61 1161.29 2405.49C1161.29 2425.37 1177.41 2441.49 1197.29 2441.49Z" fill="white"/>
</g>
<path d="M1171.99 2686.57C1151.49 2686.57 1131.09 2684.13 1111.34 2679.3C1104.91 2677.72 1100.96 2671.23 1102.54 2664.79C1104.11 2658.35 1110.61 2654.41 1117.05 2655.98C1134.92 2660.36 1153.41 2662.57 1171.99 2662.57C1299.07 2662.57 1402.46 2559.19 1402.46 2432.11V2421.62L1412.86 2420.21C1414.26 2420.02 1553.76 2400.86 1654.82 2356.37C1660.88 2353.7 1667.97 2356.45 1670.64 2362.51C1673.31 2368.58 1670.55 2375.66 1664.49 2378.33C1575.21 2417.64 1460.86 2437.21 1426.25 2442.51C1420.77 2578.02 1308.82 2686.57 1171.99 2686.57Z" fill="#451A1B"/>
<path d="M1186.32 2133.46C1178.85 2133.46 1174.68 2133.37 1174.41 2133.36L1174.99 2109.37C1176.8 2109.42 1357.49 2113.15 1528.61 2067.74L1534.77 2090.93C1385.78 2130.47 1229.9 2133.46 1186.32 2133.46Z" fill="#451A1B"/>
<path d="M1360.14 3057.71H1336.14V2786.11L1344.33 2783.37C1408.69 2761.83 1623.77 2681.06 1689.61 2545.88L1711.19 2556.38C1643.89 2694.56 1435.13 2777.43 1360.14 2803.34L1360.14 3057.71Z" fill="#451A1B"/>
<path d="M1455.1 2392.11C1459.26 2387.95 1459.26 2381.19 1455.1 2377.03C1450.93 2372.86 1444.18 2372.86 1440.01 2377.03C1435.84 2381.19 1435.84 2387.95 1440.01 2392.11C1444.18 2396.28 1450.93 2396.28 1455.1 2392.11Z" fill="#451A1B"/>
<path d="M1466.84 2472.86C1471.01 2468.7 1471.01 2461.94 1466.84 2457.78C1462.68 2453.61 1455.93 2453.61 1451.76 2457.78C1447.59 2461.94 1447.59 2468.7 1451.76 2472.86C1455.93 2477.03 1462.68 2477.03 1466.84 2472.86Z" fill="#451A1B"/>
<path d="M1538.59 2460.95C1544.48 2460.95 1549.25 2456.17 1549.25 2450.28C1549.25 2444.39 1544.48 2439.62 1538.59 2439.62C1532.7 2439.62 1527.92 2444.39 1527.92 2450.28C1527.92 2456.17 1532.7 2460.95 1538.59 2460.95Z" fill="#451A1B"/>
<path d="M1521.34 2378.95C1527.23 2378.95 1532 2374.17 1532 2368.28C1532 2362.39 1527.23 2357.62 1521.34 2357.62C1515.45 2357.62 1510.67 2362.39 1510.67 2368.28C1510.67 2374.17 1515.45 2378.95 1521.34 2378.95Z" fill="#451A1B"/>
<path d="M1606.48 2348.67C1607.43 2342.86 1603.48 2337.38 1597.66 2336.44C1591.85 2335.49 1586.37 2339.44 1585.43 2345.26C1584.48 2351.07 1588.43 2356.55 1594.25 2357.49C1600.06 2358.44 1605.54 2354.49 1606.48 2348.67Z" fill="#451A1B"/>
<path d="M1624.72 2432.49C1628.88 2428.32 1628.88 2421.57 1624.72 2417.4C1620.55 2413.24 1613.8 2413.24 1609.63 2417.4C1605.47 2421.57 1605.47 2428.32 1609.63 2432.49C1613.8 2436.65 1620.55 2436.65 1624.72 2432.49Z" fill="#451A1B"/>
<path d="M1247.07 3082.42L1218.68 3067.64C1239.31 3027.97 1253.14 2983.59 1248.67 2972.15C1241.04 2966.8 1210.05 2956.79 1189.29 2950.07C1133.19 2931.95 1114.7 2924.86 1110.43 2910.23C1106.36 2896.28 1117.05 2880.99 1143.79 2844.7C1159.38 2823.53 1180.56 2794.79 1183.73 2781.51C1178.71 2774.97 1153 2765.17 1138.94 2759.8C1105.74 2747.14 1077.08 2736.21 1075.82 2712.52C1075.05 2697.95 1088.44 2674.78 1138.13 2604.72C1144.33 2595.98 1151.2 2586.3 1154.41 2581.41C1153.06 2576.64 1148.42 2565.24 1132.8 2538.34C1120.66 2517.47 1105.79 2493.81 1091.4 2470.93C1078.55 2450.51 1066.42 2431.22 1058.32 2417.11C1049.94 2402.5 1047.65 2396.57 1046.78 2392.16C1043.8 2376.61 1058.47 2355.37 1118.34 2279.17L1119.05 2278.26C1143.94 2246.63 1181.26 2199.18 1185.46 2186.19C1184.19 2178.14 1174.11 2157.16 1166.65 2141.64C1147.21 2101.19 1135.62 2075.5 1142.07 2057.73C1159.01 2011.16 1294.02 1893.3 1309.36 1880.01L1330.31 1904.2C1275.04 1952.08 1183.56 2038.7 1172.29 2068.27C1171.26 2077.37 1187 2110.12 1195.49 2127.78C1208.7 2155.25 1216.83 2172.74 1217.53 2185.55C1218.37 2201.23 1201.76 2224.87 1144.21 2298.04L1143.5 2298.94C1119.87 2329.01 1084.77 2373.69 1078.92 2387.71C1079.89 2389.85 1081.9 2393.9 1086.07 2401.19C1093.85 2414.73 1105.82 2433.75 1118.49 2453.9C1133.02 2477.01 1148.05 2500.9 1160.47 2522.26C1177.28 2551.22 1185.09 2568.2 1186.57 2579.06C1187.09 2582.68 1186.94 2586.2 1186.09 2589.38C1184.76 2594.11 1182.11 2598.03 1164.23 2623.23C1148.77 2645.04 1113.52 2694.73 1108.28 2710.16C1114.12 2716.09 1136.57 2724.65 1150.34 2729.91C1184.66 2743 1220.16 2756.53 1215.6 2785.26C1212.59 2804.15 1195.41 2828.58 1169.55 2863.68C1160.76 2875.61 1149.42 2891.01 1144.2 2900.06C1156 2905.69 1181.3 2913.87 1199.13 2919.63C1248.88 2935.71 1268.35 2942.87 1275.42 2954.37C1294.68 2985.66 1258.59 3060.29 1247.07 3082.42ZM1107.73 2712.18C1107.73 2712.18 1107.73 2712.18 1107.73 2712.18Z" fill="#451A1B"/>
<path d="M1778.41 2689.82C1783.32 2693.07 1784.67 2699.68 1781.42 2704.6C1778.18 2709.51 1771.56 2710.86 1766.64 2707.62C1761.73 2704.37 1760.38 2697.75 1763.63 2692.84C1766.87 2687.92 1773.49 2686.57 1778.41 2689.82Z" fill="#451A1B"/>
<path d="M1852.25 2724.54C1857.17 2727.78 1858.52 2734.4 1855.27 2739.32C1852.02 2744.23 1845.41 2745.58 1840.49 2742.33C1835.58 2739.09 1834.23 2732.47 1837.47 2727.55C1840.72 2722.64 1847.34 2721.29 1852.25 2724.54Z" fill="#451A1B"/>
<path d="M1697.57 2817.84C1703.01 2820.1 1705.58 2826.35 1703.32 2831.78C1701.05 2837.22 1694.8 2839.79 1689.37 2837.53C1683.93 2835.26 1681.36 2829.02 1683.62 2823.58C1685.89 2818.14 1692.13 2815.57 1697.57 2817.84Z" fill="#451A1B"/>
<path d="M1781.38 2854C1784.67 2849.12 1783.38 2842.49 1778.49 2839.2C1773.61 2835.9 1766.98 2837.2 1763.69 2842.08C1760.39 2846.97 1761.69 2853.6 1766.57 2856.89C1771.46 2860.18 1778.09 2858.89 1781.38 2854Z" fill="#451A1B"/>
<path d="M1678.2 2956.15C1683.64 2958.42 1686.21 2964.66 1683.95 2970.1C1681.68 2975.54 1675.43 2978.11 1670 2975.85C1664.56 2973.58 1661.99 2967.33 1664.25 2961.9C1666.52 2956.46 1672.76 2953.89 1678.2 2956.15Z" fill="#451A1B"/>
<path d="M1757.41 2996.08C1762.86 2993.83 1765.45 2987.6 1763.21 2982.15C1760.97 2976.7 1754.73 2974.1 1749.29 2976.35C1743.84 2978.59 1741.24 2984.83 1743.48 2990.27C1745.73 2995.72 1751.96 2998.32 1757.41 2996.08Z" fill="#451A1B"/>
<path d="M1712.19 3088.16C1718 3089.14 1721.91 3094.65 1720.92 3100.46C1719.93 3106.27 1714.42 3110.18 1708.62 3109.19C1702.81 3108.2 1698.9 3102.69 1699.89 3096.88C1700.88 3091.07 1706.39 3087.17 1712.19 3088.16Z" fill="#451A1B"/>
<path d="M1793.77 3090.12C1799.58 3091.1 1803.49 3096.61 1802.5 3102.42C1801.51 3108.23 1796 3112.14 1790.19 3111.15C1784.39 3110.16 1780.48 3104.65 1781.47 3098.84C1782.45 3093.04 1787.96 3089.13 1793.77 3090.12Z" fill="#451A1B"/>
<path d="M1476.21 3008.52C1455.07 3024.76 1431.31 3037.52 1406.84 3048.57C1382.17 3059.16 1356.61 3067.89 1330.49 3074.46C1278.21 3087.53 1224.27 3092.95 1170.63 3093.18C1116.99 3092.99 1063.05 3087.57 1010.76 3074.5C984.645 3067.95 959.083 3059.2 934.41 3048.61C909.946 3037.54 886.183 3024.78 865.053 3008.52C963.255 3049.07 1067.03 3060.68 1170.63 3061.19C1222.49 3060.99 1274.25 3057.94 1325.45 3049.9C1376.65 3041.86 1427.11 3028.88 1476.21 3008.52Z" fill="#451A1B"/>
<path d="M1374.99 3050.61C1589.8 2909.75 1684.69 2729.41 1702.9 2603.19C1702.9 2603.19 1727.42 2619.07 1726.93 2635.75C1721.13 2829.75 1476.21 3039.08 1421.14 3055.25C1408.4 3058.99 1388.17 3061 1374.99 3050.61Z" fill="#56A1FC"/>
<path d="M1726.91 2635.77C1725.63 2679.53 1712.11 2724.09 1691.39 2767.05C1620.23 2914.41 1463.75 3042.73 1421.15 3055.25C1408.39 3059.01 1388.15 3061.01 1374.99 3050.61C1515.87 2958.25 1605.19 2848.85 1655.11 2748.89C1681.27 2696.45 1696.63 2646.61 1702.91 2603.21C1702.91 2603.21 1727.43 2619.09 1726.91 2635.77Z" fill="#FF6669"/>
<path d="M1691.39 2767.04C1620.23 2914.4 1463.75 3042.72 1421.15 3055.24C1408.39 3059 1388.15 3061 1374.99 3050.6C1515.87 2958.24 1605.19 2848.84 1655.11 2748.88C1659.39 2764.6 1670.23 2772.76 1691.39 2767.04Z" fill="#ED4A4D"/>
<path d="M1400.51 3070.25C1389.81 3070.25 1377.63 3067.97 1367.57 3060.04L1354.47 3049.72L1368.41 3040.58C1579.54 2902.12 1673.49 2722.97 1691.03 2601.48L1693.7 2582.93L1709.43 2593.12C1714.47 2596.38 1739.59 2613.8 1738.92 2636.1C1733.06 2832.24 1488.11 3048.1 1424.52 3066.76C1420.39 3067.97 1411.19 3070.25 1400.51 3070.25ZM1711 2626.63C1697.77 2691.75 1666.85 2762.44 1622.62 2828.11C1567.32 2910.22 1493.5 2983.5 1402.98 3046.22C1408.2 3045.98 1413.39 3045.02 1417.76 3043.73C1465.56 3029.7 1709.26 2825.19 1714.93 2635.39C1715.01 2632.91 1713.42 2629.81 1711 2626.63Z" fill="#451A1B"/>
<path d="M2072.83 623.948C2072.83 623.948 2281.66 703.12 2303.12 741.781C2342.91 813.453 2335.52 1234.72 2225.46 1344.55C2182.36 1387.56 1865.7 1427.75 1865.7 1427.75L2072.83 623.948Z" fill="#F0F7FF"/>
<path d="M1865.7 1427.76C1865.7 1427.76 2182.36 1387.55 2225.43 1344.53C2268.39 1301.69 2295.75 1211.3 2310.66 1112.82C2307.16 1115.97 2195.32 1212.5 1972.21 1016.29C1972.1 1016.17 1971.92 1016.06 1971.81 1015.95L1865.7 1427.76Z" fill="#CBDDEF"/>
<path d="M475.542 1427.76C475.542 1427.76 158.884 1387.55 115.81 1344.53C72.8505 1301.69 45.4916 1211.3 30.5796 1112.82C30.5226 1112.76 30.5226 1112.76 30.5226 1112.76C7.17856 959.049 13.8896 785.492 38.1506 741.787C59.6016 703.13 268.432 623.922 268.432 623.922L369.435 1015.94L475.542 1427.76Z" fill="white"/>
<path d="M2324.85 948.431C2323.05 880.231 2315.29 825.831 2303.13 803.951C2281.65 765.311 2072.85 686.111 2072.85 686.111L1882.29 1425.55C1871.73 1426.99 1865.69 1427.75 1865.69 1427.75L2072.85 623.951C2072.85 623.951 2281.65 703.111 2303.13 741.791C2318.77 769.991 2327.13 852.271 2324.85 948.431Z" fill="#FF7D7F"/>
<path d="M475.527 1427.75C475.527 1427.75 469.487 1426.99 458.926 1425.55L369.447 1078.11L268.447 686.111C268.447 686.111 59.6068 765.311 38.1668 803.951C26.0468 825.791 18.2868 880.151 16.4868 948.271C14.1668 852.231 22.4868 769.991 38.1668 741.791C59.6068 703.111 268.447 623.911 268.447 623.911L369.447 1015.95L475.527 1427.75Z" fill="#FF7D7F"/>
<path d="M475.542 1427.76C475.542 1427.76 158.884 1387.55 115.81 1344.53C72.8506 1301.69 45.4916 1211.3 30.5796 1112.82C34.0786 1115.97 145.921 1212.5 369.033 1016.29C369.148 1016.17 369.32 1016.06 369.434 1015.95L475.542 1427.76Z" fill="#DFE8F4"/>
<path d="M1844.32 1446.59L2061.79 602.653L2078.5 608.987C2114.29 622.553 2293.98 692.344 2317.11 734.014C2339.25 773.889 2347.37 898.444 2336.43 1030.18C2328.78 1122.31 2305.66 1287.13 2236.76 1355.88C2192.06 1400.48 1921.5 1436.79 1867.72 1443.62L1844.32 1446.59ZM2083.84 645.327L1887.11 1408.79C2008.51 1392.27 2187.37 1359.96 2214.16 1333.23C2259.19 1288.29 2292.14 1176.86 2304.54 1027.53C2315.71 893.085 2305.24 778.555 2289.13 749.546C2278.13 729.722 2179.04 682.45 2083.84 645.327Z" fill="#451A1B"/>
<path d="M2276.74 1173.53C2270 1173.53 2262.78 1173.3 2255.1 1172.84C2238.06 1171.82 2222.16 1163.61 2211.49 1150.32C2200.83 1137.05 2196.26 1119.81 2198.94 1103.01C2202.45 1080.93 2205.41 1057.27 2207.71 1032.68C2211.97 987.28 2213.79 942.684 2213.13 900.129C2212.91 885.926 2204.27 873.076 2191.12 867.391C2158.91 853.467 2095.95 829.037 2036.24 821.885C2029.66 821.098 2024.96 815.123 2025.75 808.543C2026.54 801.963 2032.51 797.26 2039.09 798.057C2101.82 805.569 2167.24 830.92 2200.65 845.362C2222.44 854.786 2236.76 876.135 2237.12 899.755C2237.8 943.179 2235.95 988.655 2231.61 1034.92C2229.25 1060.02 2226.24 1084.2 2222.64 1106.78C2221 1117.06 2223.68 1127.18 2230.2 1135.29C2236.74 1143.43 2246.09 1148.26 2256.53 1148.88C2274.71 1149.97 2289.86 1149.69 2301.55 1148.06C2308.12 1147.15 2314.18 1151.72 2315.09 1158.29C2316.01 1164.85 2311.43 1170.91 2304.86 1171.83C2296.76 1172.96 2287.34 1173.53 2276.74 1173.53Z" fill="#451A1B"/>
<path d="M496.944 1446.59L473.551 1443.62C419.768 1436.79 149.208 1400.49 104.507 1355.88C35.6117 1287.13 12.4867 1122.31 4.83567 1030.18C-6.10533 898.445 2.0197 773.89 24.1547 734.015C47.2877 692.345 226.98 622.554 262.767 608.988L279.474 602.654L496.944 1446.59ZM257.427 645.327C162.224 682.45 63.1397 729.722 52.1347 749.546C36.0307 778.556 25.5607 893.085 36.7277 1027.53C49.1297 1176.86 82.0737 1288.29 127.112 1333.23C153.9 1359.96 332.755 1392.27 454.16 1408.79L257.427 645.327Z" fill="#451A1B"/>
<path d="M1170.55 1952.51C1705.29 1952.51 2138.79 1519.01 2138.79 984.265C2138.79 449.52 1705.29 16.0234 1170.55 16.0234C635.804 16.0234 202.308 449.52 202.308 984.265C202.308 1519.01 635.804 1952.51 1170.55 1952.51Z" fill="white"/>
<path d="M2138.81 984.271C2138.81 992.391 2138.69 1000.51 2138.49 1008.59C2125.25 485.431 1696.93 65.3513 1170.57 65.3513C644.167 65.3513 215.887 485.431 202.647 1008.59C202.447 1000.51 202.327 992.391 202.327 984.271C202.327 449.511 635.806 16.0312 1170.57 16.0312C1705.29 16.0312 2138.81 449.511 2138.81 984.271Z" fill="#FF7D7F"/>
<path d="M2138.81 984.243C2138.81 1518.99 1705.33 1952.48 1170.58 1952.48C635.826 1952.48 202.278 1518.99 202.278 984.243C202.278 927.783 207.1 872.422 216.439 818.648C294.994 1274.48 692.287 1621.23 1170.58 1621.23C1648.87 1621.23 2046.1 1274.48 2124.65 818.648C2133.99 872.422 2138.81 927.783 2138.81 984.243Z" fill="#DFE8F4"/>
<path d="M2138.81 984.243C2138.81 1518.99 1705.33 1952.48 1170.58 1952.48C635.826 1952.48 202.278 1518.99 202.278 984.243C202.278 927.783 207.1 872.422 216.439 818.648C294.994 1274.48 692.287 1621.23 1170.58 1621.23C1648.87 1621.23 2046.1 1274.48 2124.65 818.648C2133.99 872.422 2138.81 927.783 2138.81 984.243Z" fill="#DFE8F4"/>
<path d="M1170.55 1968.51C907.65 1968.51 660.485 1866.13 474.586 1680.23C288.687 1494.33 186.308 1247.17 186.308 984.265C186.308 721.365 288.687 474.201 474.586 288.302C660.484 102.402 907.649 0.0234375 1170.55 0.0234375C1433.45 0.0234375 1680.61 102.402 1866.51 288.302C2052.41 474.2 2154.79 721.365 2154.79 984.265C2154.79 1247.17 2052.41 1494.33 1866.51 1680.23C1680.62 1866.13 1433.45 1968.51 1170.55 1968.51ZM1170.55 32.0234C645.482 32.0234 218.308 459.197 218.308 984.265C218.308 1509.33 645.482 1936.51 1170.55 1936.51C1695.62 1936.51 2122.79 1509.33 2122.79 984.265C2122.79 459.197 1695.62 32.0234 1170.55 32.0234Z" fill="#451A1B"/>
<path d="M1170.55 1968.51C907.65 1968.51 660.485 1866.13 474.586 1680.23C288.687 1494.33 186.308 1247.17 186.308 984.265C186.308 721.365 288.687 474.201 474.586 288.302C660.484 102.402 907.649 0.0234375 1170.55 0.0234375C1433.45 0.0234375 1680.61 102.402 1866.51 288.302C2052.41 474.2 2154.79 721.365 2154.79 984.265C2154.79 1247.17 2052.41 1494.33 1866.51 1680.23C1680.62 1866.13 1433.45 1968.51 1170.55 1968.51ZM1170.55 32.0234C645.482 32.0234 218.308 459.197 218.308 984.265C218.308 1509.33 645.482 1936.51 1170.55 1936.51C1695.62 1936.51 2122.79 1509.33 2122.79 984.265C2122.79 459.197 1695.62 32.0234 1170.55 32.0234Z" fill="#451A1B"/>
<path d="M1170.55 1968.51C907.65 1968.51 660.485 1866.13 474.586 1680.23C288.687 1494.33 186.308 1247.17 186.308 984.265C186.308 721.365 288.687 474.201 474.586 288.302C660.484 102.402 907.649 0.0234375 1170.55 0.0234375C1433.45 0.0234375 1680.61 102.402 1866.51 288.302C2052.41 474.2 2154.79 721.365 2154.79 984.265C2154.79 1247.17 2052.41 1494.33 1866.51 1680.23C1680.62 1866.13 1433.45 1968.51 1170.55 1968.51ZM1170.55 32.0234C645.482 32.0234 218.308 459.197 218.308 984.265C218.308 1509.33 645.482 1936.51 1170.55 1936.51C1695.62 1936.51 2122.79 1509.33 2122.79 984.265C2122.79 459.197 1695.62 32.0234 1170.55 32.0234Z" fill="#451A1B"/>
<path d="M1170.53 1968.49C721.969 1968.49 330.444 1665.87 217.942 1232.38C217.784 1231.94 217.644 1231.48 217.524 1231.02C196.808 1151.08 186.304 1068.06 186.304 984.263C186.304 947.132 188.394 910.046 192.514 874.038C219.097 635.052 332.622 414.36 512.172 252.665C693.068 89.7571 926.877 0.0380859 1170.53 0.0380859C1414.27 0.0380859 1648.13 89.7801 1829.03 252.733C2008.59 414.471 2122.1 635.235 2148.64 874.356C2152.7 910.501 2154.76 947.485 2154.76 984.262C2154.76 1067.93 2144.28 1150.95 2123.63 1231C2123.51 1231.47 2123.37 1231.93 2123.21 1232.38C2010.62 1665.87 1619.06 1968.49 1170.53 1968.49ZM248.594 1223.1C357.012 1643.13 736.126 1936.49 1170.53 1936.49C1604.9 1936.49 1984.05 1643.13 2092.56 1223.09C2092.68 1222.64 2092.81 1222.2 2092.97 1221.76C2112.73 1144.7 2122.76 1064.8 2122.76 984.263C2122.76 948.675 2120.77 912.892 2116.84 877.908C2063.31 395.676 1656.48 32.0391 1170.53 32.0391C684.719 32.0391 277.933 395.562 224.311 877.627C220.323 912.482 218.303 948.344 218.303 984.264C218.303 1064.92 228.354 1144.81 248.178 1221.75C248.337 1222.19 248.474 1222.64 248.594 1223.1Z" fill="#451A1B"/>
<path d="M2105.06 746.335C2098.83 746.335 2092.95 742.679 2090.36 736.661C1936.27 378.911 1575.22 147.751 1170.55 147.751C766.139 147.751 405.156 378.708 250.902 736.142C247.575 743.847 238.857 747.671 230.933 744.906C223.008 742.138 218.572 733.715 220.77 725.613C336.678 298.383 727.24 0 1170.54 0C1614.13 0 2004.76 298.604 2120.5 726.15C2122.69 734.254 2118.25 742.675 2110.32 745.439C2108.59 746.046 2106.81 746.335 2105.06 746.335ZM1170.55 115.751C1377.75 115.751 1577.42 174.585 1747.96 285.896C1849.38 352.091 1936.69 434.111 2006.78 528.289C1842.8 227.998 1524.06 32 1170.55 32C817.278 32 498.615 227.873 334.565 527.906C404.67 433.804 491.974 351.853 593.356 285.728C763.84 174.528 963.429 115.751 1170.55 115.751Z" fill="#451A1B"/>
<path d="M2138.73 984.288C2138.73 1068.09 2128.11 1149.51 2108.11 1227.03C2108.11 1227.03 2108.02 1227.03 2108.02 1227.12C1940.06 1551.63 1583.33 1830.85 1170.5 1830.85C757.673 1830.85 401.037 1551.63 233.073 1227.12C233.073 1227.03 232.984 1227.03 232.984 1227.03C212.898 1149.51 202.276 1068.09 202.276 984.288C202.276 947.65 204.311 911.457 208.382 875.881C339.003 514.466 720.328 252.962 1170.5 252.962C1620.77 252.962 2002.18 514.643 2132.71 876.146C2136.7 911.633 2138.73 947.738 2138.73 984.288Z" fill="#451A1B"/>
<g opacity="0.35">
<path d="M2138.77 984.313C2138.77 1068.12 2128.15 1149.54 2108.15 1227.06C2108.15 1227.06 2108.06 1227.06 2108.06 1227.15C1940.1 1551.66 1583.37 1830.86 1170.54 1830.86C757.715 1830.86 401.079 1551.66 233.113 1227.15C233.113 1227.06 233.027 1227.06 233.027 1227.06C221.079 1180.86 212.496 1133.34 207.451 1084.67C424.53 1328.56 740.192 1505.99 1091.61 1505.99C1539.3 1505.99 1929.21 1218.03 2130.98 871.482C2131.6 873.075 2132.22 874.58 2132.75 876.172C2136.74 911.658 2138.77 947.765 2138.77 984.313Z" fill="#111A28"/>
</g>
<path d="M1170.51 1846.85C973.319 1846.85 776.368 1783.58 600.946 1663.89C441.9 1555.37 306.412 1403.23 219.334 1235.38C218.526 1234.06 217.9 1232.6 217.497 1231.04C196.781 1151.09 186.277 1068.07 186.277 984.288C186.277 947.163 188.367 910.079 192.487 874.063C192.629 872.827 192.914 871.612 193.337 870.444C259.421 687.594 386.492 530.286 560.813 415.526C738.261 298.708 949.088 236.962 1170.51 236.962C1391.96 236.962 1602.83 298.743 1780.31 415.628C1954.66 530.448 2081.72 687.814 2147.76 870.712C2148.19 871.892 2148.47 873.116 2148.61 874.36C2152.67 910.532 2154.73 947.516 2154.73 984.288C2154.73 1067.96 2144.26 1150.97 2123.6 1231.03C2123.2 1232.59 2122.57 1234.05 2121.76 1235.38C2034.69 1403.22 1899.18 1555.37 1740.11 1663.89C1564.66 1783.58 1367.7 1846.85 1170.51 1846.85ZM247.982 1221.11C401.644 1516.87 746.17 1814.85 1170.5 1814.85C1594.9 1814.85 1939.45 1516.88 2093.11 1221.12C2112.77 1144.26 2122.73 1064.6 2122.73 984.289C2122.73 949.342 2120.81 914.199 2117.02 879.807C1984.14 514.344 1604.03 268.963 1170.5 268.963C737.095 268.963 357.021 514.254 224.068 879.561C220.224 913.79 218.276 949.016 218.276 984.29C218.277 1064.7 228.271 1144.37 247.982 1221.11Z" fill="#451A1B"/>
<g opacity="0.2">
<path d="M396.042 1303.59C320.338 1303.59 220.653 851.982 461.917 596.631C705.895 338.406 1177.02 309.518 1177.02 369.819C1177.02 430.12 753.767 501.44 558.723 848.462C464.588 1015.95 471.746 1303.59 396.042 1303.59Z" fill="white"/>
</g>
<path d="M2261.92 849.09C2266.48 852.591 2267.33 859.121 2263.83 863.677C2260.33 868.232 2253.8 869.087 2249.25 865.586C2244.69 862.085 2243.84 855.555 2247.34 850.999C2250.84 846.444 2257.37 845.589 2261.92 849.09Z" fill="#451A1B"/>
<path d="M2185.57 898.028C2190.12 901.529 2190.98 908.059 2187.48 912.615C2183.98 917.171 2177.45 918.025 2172.89 914.524C2168.34 911.023 2167.48 904.492 2170.98 899.937C2174.48 895.382 2181.01 894.527 2185.57 898.028Z" fill="#451A1B"/>
<path d="M2261.92 1114.07C2266.48 1117.57 2267.33 1124.1 2263.83 1128.65C2260.33 1133.21 2253.8 1134.06 2249.25 1130.56C2244.69 1127.06 2243.84 1120.53 2247.34 1115.98C2250.84 1111.42 2257.37 1110.57 2261.92 1114.07Z" fill="#451A1B"/>
<path d="M2180.49 1181.42C2186.19 1180.67 2190.2 1175.45 2189.45 1169.75C2188.71 1164.06 2183.49 1160.04 2177.79 1160.79C2172.1 1161.54 2168.08 1166.76 2168.83 1172.45C2169.57 1178.15 2174.8 1182.16 2180.49 1181.42Z" fill="#451A1B"/>
<path d="M1167.54 1159.94V1163.53L1165.25 1161.77L1167.54 1159.94Z" fill="#D8D8D8"/>
<path d="M1165.25 1161.77L1162.96 1163.53V1159.94L1165.25 1161.77Z" fill="#D8D8D8"/>
<path d="M2138.77 984.271C2138.77 992.151 2138.69 1000.03 2138.45 1007.91C2126.65 553.311 1801.41 176.671 1370.89 86.1113C1403.29 67.1113 1431.29 54.5513 1444.69 55.3913C1812.57 163.791 2089.29 484.711 2132.73 876.111C2136.73 911.592 2138.77 947.711 2138.77 984.271Z" fill="#FF7D7F"/>
<g opacity="0.2">
<path d="M1937.83 1053.94C2005.69 1027.33 2030.93 929.841 1994.2 836.196C1957.48 742.551 1872.7 688.209 1804.84 714.82C1736.98 741.431 1711.75 838.917 1748.47 932.562C1785.19 1026.21 1869.97 1080.55 1937.83 1053.94Z" fill="white"/>
</g>
<g opacity="0.2">
<path d="M1975.74 1243.06C1989.28 1198.93 1969.55 1153.73 1931.68 1142.11C1893.8 1130.48 1852.12 1156.84 1838.58 1200.98C1825.04 1245.12 1844.77 1290.32 1882.64 1301.94C1920.52 1313.56 1962.2 1287.2 1975.74 1243.06Z" fill="white"/>
</g>
<path d="M1202.5 234.311C1203.17 191.311 1401.17 52.6545 1444.69 55.3895C1812.56 163.774 2089.29 484.716 2132.74 876.122C2136.72 911.609 2138.76 947.714 2138.76 984.263C2138.76 1068.07 2128.14 1149.48 2108.14 1227C2108.14 1227 2108.05 1227 2108.05 1227.09C2000.26 1644.35 1621.41 1952.49 1170.53 1952.49C1170.53 1952.49 1366.21 1711.43 1360.21 1650.56C1355.21 1599.92 1147.99 1457.16 1157.15 1375.64C1165.25 1303.58 1296.5 1093.28 1290.5 1035.64C1284.5 978.002 1108.36 827.641 1107.83 755.643C1107.21 671.643 1344.37 509.311 1344.37 478.311C1344.37 447.311 1201.83 277.311 1202.5 234.311Z" fill="#F0F7FF"/>
<path d="M2047.29 1395.63C1892.61 1724.71 1558.21 1952.47 1170.53 1952.47C1170.53 1952.47 1258.57 1844.03 1314.69 1754.27C1580.65 1724.55 1871.97 1624.07 2047.29 1395.63Z" fill="#CBDDEF"/>
<path d="M2138.77 984.271C2138.77 992.151 2138.69 1000.03 2138.45 1007.91C2126.65 553.311 1801.41 176.671 1370.89 86.1113C1403.29 67.1113 1431.29 54.5513 1444.69 55.3913C1812.57 163.791 2089.29 484.711 2132.73 876.111C2136.73 911.592 2138.77 947.711 2138.77 984.271Z" fill="#FF7D7F"/>
<path d="M1731.73 1238.71C1710.73 1428.55 1564.05 1599.87 1357.37 1670.47C1359.69 1662.63 1360.73 1655.91 1360.21 1650.55C1355.21 1599.91 1148.01 1457.15 1157.17 1375.63C1158.45 1364.11 1162.93 1348.99 1169.49 1331.55C1476.69 1332.79 1731.73 1238.71 1731.73 1238.71Z" fill="white"/>
<path d="M1731.73 1238.71C1727.65 1275.79 1718.73 1312.19 1705.49 1347.23C1651.13 1491.63 1523.69 1613.67 1357.37 1670.47C1359.69 1662.63 1360.73 1655.91 1360.21 1650.55C1355.21 1599.91 1148.01 1457.15 1157.17 1375.63C1158.45 1364.11 1162.93 1348.99 1169.49 1331.55C1353.01 1332.31 1517.93 1299.03 1620.97 1272.11C1690.41 1253.95 1731.73 1238.71 1731.73 1238.71Z" fill="white"/>
<path d="M1705.49 1347.23C1651.13 1491.63 1523.69 1613.67 1357.37 1670.47C1359.69 1662.63 1360.73 1655.91 1360.21 1650.55C1355.21 1599.91 1148.01 1457.15 1157.17 1375.63C1158.45 1364.11 1162.93 1348.99 1169.49 1331.55C1353.01 1332.31 1517.93 1299.03 1620.97 1272.11C1557.95 1325.42 1390 1344.63 1348.67 1391.2C1320.17 1423.32 1322.67 1484.31 1354.17 1513.31C1455.17 1606.31 1634.45 1450.15 1705.49 1347.23Z" fill="#E1EAEF"/>
<path d="M1471.04 1629.98C1464.41 1629.98 1459.04 1624.6 1459.04 1617.98V1304.82C1459.04 1298.19 1464.41 1292.82 1471.04 1292.82C1477.66 1292.82 1483.04 1298.19 1483.04 1304.82V1617.98C1483.04 1624.6 1477.66 1629.98 1471.04 1629.98Z" fill="#451A1B"/>
<path d="M1631.33 1490.39C1624.7 1490.39 1619.33 1485.02 1619.33 1478.39V1268.9C1619.33 1262.28 1624.7 1256.9 1631.33 1256.9C1637.95 1256.9 1643.33 1262.28 1643.33 1268.9V1478.39C1643.33 1485.02 1637.95 1490.39 1631.33 1490.39Z" fill="#451A1B"/>
<path d="M1290.22 1770.84L1305.74 1745.92C1344.67 1683.43 1349.09 1660.09 1348.26 1651.73C1346.61 1634.99 1306.4 1594.8 1270.93 1559.35C1209.2 1497.65 1139.24 1427.72 1145.24 1374.29C1148.42 1345.73 1168.47 1300.03 1189.66 1254.89L1192.72 1248.38L1199.91 1248.01C1501.82 1232.37 1703.34 1164.41 1705.34 1163.72L1705.86 1163.56C1711.27 1161.97 1716.59 1160.25 1721.79 1158.56C1748.38 1149.97 1775.87 1141.07 1796.05 1158.2C1818.61 1177.4 1812.27 1235.73 1810.72 1247.59C1783.63 1491.72 1585.94 1699.21 1318.75 1763.93L1290.22 1770.84ZM1208.35 1271.59C1189.98 1311 1171.75 1353.11 1169.09 1376.96C1164.38 1418.91 1232.87 1487.37 1287.9 1542.37C1338.59 1593.03 1369.77 1625.3 1372.15 1649.37C1373.28 1660.74 1370.88 1681.55 1341.37 1733.14C1584.4 1663.46 1761.92 1470.34 1786.88 1244.83L1786.91 1244.59C1790.47 1217.37 1788.75 1183.5 1780.51 1176.49C1770.54 1168.02 1751.37 1174.22 1729.17 1181.4C1723.85 1183.12 1718.41 1184.88 1712.87 1186.51C1704.09 1189.48 1506.28 1255.28 1208.35 1271.59Z" fill="#451A1B"/>
<path d="M1357.37 1682.47C1354.32 1682.47 1351.33 1681.31 1349.06 1679.13C1345.82 1676.02 1344.59 1671.37 1345.86 1667.07C1348.28 1658.88 1348.5 1654.2 1348.26 1651.71C1346.61 1634.99 1306.41 1594.8 1270.93 1559.35C1209.2 1497.65 1139.24 1427.72 1145.24 1374.29C1146.56 1362.48 1150.81 1347.12 1158.26 1327.33C1160.02 1322.64 1164.36 1319.51 1169.54 1319.55C1470.82 1320.64 1725.04 1228.39 1727.58 1227.45C1731.47 1226.02 1735.85 1226.7 1739.12 1229.26C1742.4 1231.83 1744.11 1235.9 1743.65 1240.03C1721.92 1436.48 1571.82 1609.9 1361.25 1681.83C1359.98 1682.26 1358.67 1682.47 1357.37 1682.47ZM1177.88 1343.56C1172.96 1357.54 1170.01 1368.75 1169.09 1376.96C1164.38 1418.92 1232.87 1487.37 1287.9 1542.37C1338.59 1593.03 1369.77 1625.3 1372.15 1649.37C1372.24 1650.34 1372.3 1651.33 1372.33 1652.34C1557.51 1582.3 1690.19 1429.91 1717.28 1256.33C1653.41 1277.34 1433.02 1343.13 1177.88 1343.56Z" fill="#451A1B"/>
<path d="M1310.75 1594.53C1304.12 1594.53 1298.75 1589.16 1298.75 1582.53V1326.44C1298.75 1319.82 1304.12 1314.44 1310.75 1314.44C1317.38 1314.44 1322.75 1319.82 1322.75 1326.44V1582.53C1322.75 1589.16 1317.38 1594.53 1310.75 1594.53Z" fill="#451A1B"/>
<path d="M1170.53 1968.49C1164.36 1968.49 1158.74 1964.94 1156.08 1959.37C1153.43 1953.8 1154.22 1947.2 1158.11 1942.41C1237.64 1844.42 1347.98 1689.59 1344.28 1652.13C1342.77 1636.81 1301.37 1595.43 1268.1 1562.18C1205.73 1499.85 1135.03 1429.2 1141.25 1373.86C1145.37 1337.27 1176.17 1273.3 1208.78 1205.58C1239.31 1142.2 1277.29 1063.32 1274.58 1037.3C1272.35 1015.83 1232.03 967.676 1196.46 925.186C1145.18 863.944 1092.16 800.618 1091.83 755.762C1091.39 696.248 1183.74 613.1 1257.95 546.289C1286.66 520.433 1322.13 488.5 1328.1 477.312C1324.48 463.492 1292.71 417.371 1269.28 383.361C1217.5 308.193 1186.09 260.634 1186.5 234.064C1186.66 223.664 1191.58 205.486 1232.29 167.843C1288.79 115.601 1405.92 36.8679 1445.69 39.4209C1446.89 39.4969 1448.07 39.7039 1449.21 40.0419C1633.92 94.4619 1797.61 201.401 1922.59 349.296C2048.94 498.81 2127.11 680.374 2148.64 874.357C2152.7 910.502 2154.76 947.486 2154.76 984.263C2154.76 1067.93 2144.28 1150.95 2123.63 1231C2123.51 1231.47 2123.37 1231.93 2123.21 1232.39C2010.62 1665.87 1619.06 1968.49 1170.53 1968.49ZM1218.5 234.599C1218.28 252.917 1264.83 320.486 1295.64 365.208C1341.64 431.987 1360.38 460.915 1360.38 478.312C1360.38 495.668 1340.58 514.947 1279.36 570.07C1217.3 625.951 1123.5 710.4 1123.83 755.527C1124.08 788.888 1177.82 853.07 1220.99 904.642C1265.09 957.308 1303.17 1002.79 1306.41 1033.99C1309.82 1066.68 1282.69 1125.87 1237.62 1219.47C1207.6 1281.8 1176.56 1346.25 1173.05 1377.43C1168.56 1417.46 1239.16 1488.02 1290.72 1539.55C1343.59 1592.38 1373.62 1623.51 1376.13 1648.99C1381.56 1704.06 1259.96 1865.3 1204.28 1935.9C1624.42 1921.15 1986.88 1632.21 2092.56 1223.09C2092.68 1222.64 2092.81 1222.2 2092.97 1221.76C2112.74 1144.7 2122.76 1064.8 2122.76 984.263C2122.76 948.675 2120.77 912.892 2116.84 877.908C2074.55 496.935 1809.87 180.595 1442.31 71.3689C1428.91 72.2439 1382.29 93.6639 1318.12 139.791C1250.85 188.142 1219.38 224.32 1218.5 234.599ZM1328.68 476.067C1328.68 476.067 1328.68 476.07 1328.68 476.067Z" fill="#451A1B"/>
<path d="M1386.33 1059.07V1110.51C1386.33 1159.87 1345.93 1200.23 1296.61 1200.23H1229.09C1262.17 1131.47 1293.49 1064.47 1290.49 1035.63C1288.81 1019.51 1273.89 996.191 1253.21 969.351H1296.61C1345.93 969.351 1386.33 1009.71 1386.33 1059.07Z" fill="#6A7484"/>
<path d="M1386.33 1059.07V1110.51C1386.33 1159.87 1345.93 1200.23 1296.61 1200.23H1229.09C1262.17 1131.47 1293.49 1064.47 1290.49 1035.63C1288.81 1019.51 1273.89 996.191 1253.21 969.351H1296.61C1345.93 969.351 1386.33 1009.71 1386.33 1059.07Z" fill="#6A7484"/>
<path d="M1386.33 1059.07V1110.51C1386.33 1115.71 1385.89 1120.83 1384.97 1125.83C1377.69 1167.95 1340.73 1200.23 1296.61 1200.23H1229.09C1262.17 1131.47 1293.49 1064.47 1290.49 1035.63C1288.81 1019.51 1273.89 996.191 1253.21 969.351H1296.61C1310.89 969.351 1324.41 972.711 1336.41 978.751C1365.93 993.471 1386.33 1023.99 1386.33 1059.07Z" fill="#6A7484"/>
<path d="M1384.97 1125.83C1377.69 1167.95 1340.73 1200.23 1296.61 1200.23H1229.09C1262.17 1131.47 1293.49 1064.47 1290.49 1035.63C1288.81 1019.51 1273.89 996.191 1253.21 969.351H1296.61C1310.89 969.351 1324.41 972.711 1336.41 978.751C1300.29 990.191 1276.17 1120.91 1332.81 1136.63C1355.09 1142.83 1372.69 1135.31 1384.97 1125.83Z" fill="#4D5E77"/>
<path d="M1296.61 1216.23H1229.09C1223.58 1216.23 1218.47 1213.41 1215.54 1208.75C1212.61 1204.09 1212.28 1198.25 1214.67 1193.3C1239.59 1141.48 1277.27 1063.18 1274.57 1037.29C1273.45 1026.55 1262 1006.98 1240.53 979.117C1236.81 974.287 1236.16 967.762 1238.85 962.289C1241.54 956.818 1247.11 953.351 1253.2 953.351H1296.6C1354.9 953.351 1402.32 1000.78 1402.32 1059.07V1110.51C1402.33 1168.81 1354.9 1216.23 1296.61 1216.23ZM1254.48 1184.23H1296.61C1337.25 1184.23 1370.33 1151.16 1370.33 1110.51V1059.07C1370.33 1018.42 1337.26 985.351 1296.61 985.351H1284.56C1298.32 1005.92 1305.06 1021.15 1306.4 1033.97C1309.43 1063.09 1286.57 1116.66 1254.48 1184.23Z" fill="#451A1B"/>
<path d="M1296.61 1216.23H1229.09C1223.58 1216.23 1218.47 1213.41 1215.54 1208.75C1212.61 1204.09 1212.28 1198.25 1214.67 1193.3C1239.59 1141.48 1277.27 1063.18 1274.57 1037.29C1273.45 1026.55 1262 1006.98 1240.53 979.117C1236.81 974.287 1236.16 967.762 1238.85 962.289C1241.54 956.818 1247.11 953.351 1253.2 953.351H1296.6C1354.9 953.351 1402.32 1000.78 1402.32 1059.07V1110.51C1402.33 1168.81 1354.9 1216.23 1296.61 1216.23ZM1254.48 1184.23H1296.61C1337.25 1184.23 1370.33 1151.16 1370.33 1110.51V1059.07C1370.33 1018.42 1337.26 985.351 1296.61 985.351H1284.56C1298.32 1005.92 1305.06 1021.15 1306.4 1033.97C1309.43 1063.09 1286.57 1116.66 1254.48 1184.23Z" fill="#451A1B"/>
<path d="M1170.53 1968.49C1164.36 1968.49 1158.74 1964.94 1156.08 1959.37C1153.43 1953.8 1154.22 1947.2 1158.11 1942.41C1237.64 1844.42 1347.98 1689.59 1344.28 1652.13C1342.77 1636.81 1301.37 1595.43 1268.1 1562.18C1205.73 1499.85 1135.03 1429.2 1141.25 1373.86C1145.37 1337.27 1176.17 1273.3 1208.78 1205.58C1239.31 1142.2 1277.29 1063.32 1274.58 1037.3C1272.35 1015.83 1232.03 967.676 1196.46 925.186C1145.18 863.944 1092.16 800.618 1091.83 755.762C1091.39 696.248 1183.74 613.1 1257.95 546.289C1286.66 520.433 1322.13 488.5 1328.1 477.312C1324.48 463.492 1292.71 417.371 1269.28 383.361C1217.5 308.193 1186.09 260.634 1186.5 234.064C1186.66 223.664 1191.58 205.486 1232.29 167.843C1288.79 115.601 1405.92 36.8679 1445.69 39.4209C1446.89 39.4969 1448.07 39.7039 1449.21 40.0419C1633.92 94.4619 1797.61 201.401 1922.59 349.296C2048.94 498.81 2127.11 680.374 2148.64 874.357C2152.7 910.502 2154.76 947.486 2154.76 984.263C2154.76 1067.93 2144.28 1150.95 2123.63 1231C2123.51 1231.47 2123.37 1231.93 2123.21 1232.39C2010.62 1665.87 1619.06 1968.49 1170.53 1968.49ZM1218.5 234.599C1218.28 252.917 1264.83 320.486 1295.64 365.208C1341.64 431.987 1360.38 460.915 1360.38 478.312C1360.38 495.668 1340.58 514.947 1279.36 570.07C1217.3 625.951 1123.5 710.4 1123.83 755.527C1124.08 788.888 1177.82 853.07 1220.99 904.642C1265.09 957.308 1303.17 1002.79 1306.41 1033.99C1309.82 1066.68 1282.69 1125.87 1237.62 1219.47C1207.6 1281.8 1176.56 1346.25 1173.05 1377.43C1168.56 1417.46 1239.16 1488.02 1290.72 1539.55C1343.59 1592.38 1373.62 1623.51 1376.13 1648.99C1381.56 1704.06 1259.96 1865.3 1204.28 1935.9C1624.42 1921.15 1986.88 1632.21 2092.56 1223.09C2092.68 1222.64 2092.81 1222.2 2092.97 1221.76C2112.74 1144.7 2122.76 1064.8 2122.76 984.263C2122.76 948.675 2120.77 912.892 2116.84 877.908C2074.55 496.935 1809.87 180.595 1442.31 71.3689C1428.91 72.2439 1382.29 93.6639 1318.12 139.791C1250.85 188.142 1219.38 224.32 1218.5 234.599ZM1328.68 476.067C1328.68 476.067 1328.68 476.07 1328.68 476.067Z" fill="#451A1B"/>
<path d="M1707.47 1157.19C1697.52 1157.19 1687.82 1156.89 1678.4 1156.29C1503.34 1145.06 1464.34 1043.35 1438.53 976.049C1432.09 959.246 1426.52 944.735 1419.95 934.069C1395.91 895.053 1342.45 896.944 1261.54 899.794C1239.28 900.579 1214.07 901.47 1187.52 901.47C1180.89 901.47 1175.52 896.097 1175.52 889.47C1175.52 882.843 1180.89 877.47 1187.52 877.47C1213.64 877.47 1237.56 876.626 1260.69 875.81C1346.8 872.771 1409.02 870.574 1440.38 921.48C1448.13 934.052 1454.06 949.533 1460.94 967.457C1485.96 1032.72 1520.24 1122.09 1679.93 1132.34C1758.18 1137.34 1857.38 1120.25 1952.11 1085.39C2036.09 1054.49 2105.54 1013.15 2129.02 980.077C2132.86 974.673 2140.35 973.403 2145.75 977.241C2151.16 981.077 2152.43 988.569 2148.59 993.971C2122.09 1031.29 2049.98 1074.95 1960.4 1107.91C1873.95 1139.72 1783.56 1157.19 1707.47 1157.19Z" fill="#451A1B"/>
<mask id="mask0_2564_18" style="mask-type:luminance" maskUnits="userSpaceOnUse" x="1229" y="969" width="158" height="232">
<path d="M1386.33 1059.07V1110.51C1386.33 1159.87 1345.93 1200.23 1296.61 1200.23H1229.09C1262.17 1131.47 1293.49 1064.47 1290.49 1035.63C1288.81 1019.51 1273.89 996.191 1253.21 969.351H1296.61C1345.93 969.351 1386.33 1009.71 1386.33 1059.07Z" fill="white"/>
</mask>
<g mask="url(#mask0_2564_18)">
<path d="M1417.11 1176.23H1049.5C1047.3 1176.23 1045.5 1174.44 1045.5 1172.23C1045.5 1170.02 1047.3 1168.23 1049.5 1168.23H1417.11C1419.32 1168.23 1421.11 1170.02 1421.11 1172.23C1421.11 1174.44 1419.32 1176.23 1417.11 1176.23Z" fill="#451A1B"/>
<path d="M1417.11 1018.03H1049.5C1047.3 1018.03 1045.5 1016.24 1045.5 1014.03C1045.5 1011.82 1047.3 1010.03 1049.5 1010.03H1417.11C1419.32 1010.03 1421.11 1011.82 1421.11 1014.03C1421.11 1016.24 1419.32 1018.03 1417.11 1018.03Z" fill="#451A1B"/>
<path d="M1417.11 1044.4H1049.5C1047.3 1044.4 1045.5 1042.61 1045.5 1040.4C1045.5 1038.19 1047.3 1036.4 1049.5 1036.4H1417.11C1419.32 1036.4 1421.11 1038.19 1421.11 1040.4C1421.11 1042.61 1419.32 1044.4 1417.11 1044.4Z" fill="#451A1B"/>
<path d="M1417.11 1070.76H1049.5C1047.3 1070.76 1045.5 1068.97 1045.5 1066.76C1045.5 1064.56 1047.3 1062.76 1049.5 1062.76H1417.11C1419.32 1062.76 1421.11 1064.56 1421.11 1066.76C1421.11 1068.97 1419.32 1070.76 1417.11 1070.76Z" fill="#451A1B"/>
<path d="M1417.11 991.665H1049.5C1047.3 991.665 1045.5 989.874 1045.5 987.665C1045.5 985.456 1047.3 983.665 1049.5 983.665H1417.11C1419.32 983.665 1421.11 985.456 1421.11 987.665C1421.11 989.874 1419.32 991.665 1417.11 991.665Z" fill="#451A1B"/>
<path d="M1417.11 1097.13H1049.5C1047.3 1097.13 1045.5 1095.34 1045.5 1093.13C1045.5 1090.92 1047.3 1089.13 1049.5 1089.13H1417.11C1419.32 1089.13 1421.11 1090.92 1421.11 1093.13C1421.11 1095.34 1419.32 1097.13 1417.11 1097.13Z" fill="#451A1B"/>
<path d="M1417.11 1123.5H1049.5C1047.3 1123.5 1045.5 1121.71 1045.5 1119.5C1045.5 1117.29 1047.3 1115.5 1049.5 1115.5H1417.11C1419.32 1115.5 1421.11 1117.29 1421.11 1119.5C1421.11 1121.71 1419.32 1123.5 1417.11 1123.5Z" fill="#451A1B"/>
<path d="M1417.11 1149.86H1049.5C1047.3 1149.86 1045.5 1148.07 1045.5 1145.86C1045.5 1143.66 1047.3 1141.86 1049.5 1141.86H1417.11C1419.32 1141.86 1421.11 1143.66 1421.11 1145.86C1421.11 1148.07 1419.32 1149.86 1417.11 1149.86Z" fill="#451A1B"/>
<path d="M1417.11 1202.6H1049.5C1047.3 1202.6 1045.5 1200.81 1045.5 1198.6C1045.5 1196.39 1047.3 1194.6 1049.5 1194.6H1417.11C1419.32 1194.6 1421.11 1196.39 1421.11 1198.6C1421.11 1200.81 1419.32 1202.6 1417.11 1202.6Z" fill="#451A1B"/>
<path d="M1353.74 1284.19C1351.53 1284.19 1349.74 1282.4 1349.74 1280.19V912.584C1349.74 910.375 1351.53 908.584 1353.74 908.584C1355.95 908.584 1357.74 910.375 1357.74 912.584V1280.19C1357.74 1282.4 1355.95 1284.19 1353.74 1284.19Z" fill="#451A1B"/>
<path d="M1326.97 1284.19C1324.76 1284.19 1322.97 1282.4 1322.97 1280.19V912.584C1322.97 910.375 1324.76 908.584 1326.97 908.584C1329.18 908.584 1330.97 910.375 1330.97 912.584V1280.19C1330.97 1282.4 1329.18 1284.19 1326.97 1284.19Z" fill="#451A1B"/>
<path d="M1300.2 1284.19C1297.99 1284.19 1296.2 1282.4 1296.2 1280.19V912.584C1296.2 910.375 1297.99 908.584 1300.2 908.584C1302.41 908.584 1304.2 910.375 1304.2 912.584V1280.19C1304.2 1282.4 1302.41 1284.19 1300.2 1284.19Z" fill="#451A1B"/>
<path d="M1273.43 1284.19C1271.22 1284.19 1269.43 1282.4 1269.43 1280.19V912.584C1269.43 910.375 1271.22 908.584 1273.43 908.584C1275.64 908.584 1277.43 910.375 1277.43 912.584V1280.19C1277.43 1282.4 1275.64 1284.19 1273.43 1284.19Z" fill="#451A1B"/>
<path d="M1246.66 1284.19C1244.45 1284.19 1242.66 1282.4 1242.66 1280.19V912.584C1242.66 910.375 1244.45 908.584 1246.66 908.584C1248.87 908.584 1250.66 910.375 1250.66 912.584V1280.19C1250.66 1282.4 1248.87 1284.19 1246.66 1284.19Z" fill="#451A1B"/>
</g>
<path d="M1200.37 633.271C1194.44 633.271 1189.29 628.876 1188.49 622.839C1187.63 616.269 1192.25 610.239 1198.82 609.372C1441.2 577.376 1613.34 514.505 1710.46 422.505C1785.76 351.189 1792.21 283.583 1794.64 258.132C1794.81 256.331 1794.96 254.737 1795.11 253.361C1795.84 246.777 1801.79 242.019 1808.37 242.761C1814.95 243.491 1819.7 249.425 1818.97 256.013C1818.83 257.281 1818.69 258.751 1818.53 260.413C1815.87 288.313 1808.79 362.425 1726.97 439.929C1626.09 535.48 1449.45 600.493 1201.96 633.165C1201.43 633.236 1200.9 633.271 1200.37 633.271Z" fill="#451A1B"/>
<path d="M1732.83 319.102C1733.62 313.412 1738.88 309.443 1744.57 310.238C1750.26 311.032 1754.22 316.289 1753.43 321.978C1752.64 327.667 1747.38 331.637 1741.69 330.842C1736 330.048 1732.03 324.792 1732.83 319.102Z" fill="#451A1B"/>
<path d="M1813.09 361.323C1813.88 355.633 1819.14 351.664 1824.83 352.459C1830.52 353.253 1834.49 358.51 1833.69 364.2C1832.9 369.89 1827.64 373.859 1821.95 373.064C1816.26 372.27 1812.3 367.013 1813.09 361.323Z" fill="#451A1B"/>
<path d="M1654.18 416.102C1657.44 411.371 1663.91 410.178 1668.64 413.438C1673.37 416.697 1674.57 423.175 1671.31 427.906C1668.05 432.637 1661.57 433.83 1656.84 430.57C1652.11 427.311 1650.92 420.833 1654.18 416.102Z" fill="#451A1B"/>
<path d="M1707.02 489.812C1710.27 485.081 1716.75 483.888 1721.48 487.148C1726.21 490.408 1727.41 496.885 1724.15 501.616C1720.89 506.347 1714.41 507.54 1709.68 504.28C1704.95 501.02 1703.76 494.543 1707.02 489.812Z" fill="#451A1B"/>
<path d="M1538.72 504.116C1544.46 504.116 1549.12 499.458 1549.12 493.714C1549.12 487.969 1544.46 483.312 1538.72 483.312C1532.97 483.312 1528.32 487.969 1528.32 493.714C1528.32 499.458 1532.97 504.116 1538.72 504.116Z" fill="#451A1B"/>
<path d="M1559.94 571.866C1564.5 568.37 1571.03 569.232 1574.52 573.791C1578.02 578.35 1577.16 584.88 1572.6 588.376C1568.04 591.872 1561.51 591.01 1558.01 586.451C1554.52 581.892 1555.38 575.362 1559.94 571.866Z" fill="#451A1B"/>
<path d="M1374.26 532.764C1379.45 530.298 1385.65 532.505 1388.12 537.694C1390.59 542.883 1388.38 549.088 1383.19 551.555C1378 554.021 1371.8 551.814 1369.33 546.625C1366.86 541.436 1369.07 535.23 1374.26 532.764Z" fill="#451A1B"/>
<path d="M1383.15 623.02C1388.34 620.554 1394.54 622.761 1397.01 627.95C1399.47 633.139 1397.27 639.344 1392.08 641.811C1386.89 644.277 1380.68 642.07 1378.22 636.882C1375.75 631.692 1377.96 625.486 1383.15 623.02Z" fill="#451A1B"/>
<path d="M1674.82 1822.96C1669.83 1822.96 1665.17 1819.82 1663.47 1814.83C1637.55 1739.02 1549.79 1651.03 1548.91 1650.15C1544.22 1645.47 1544.2 1637.87 1548.87 1633.18C1553.55 1628.48 1561.15 1628.46 1565.84 1633.14C1569.61 1636.89 1658.43 1725.92 1686.18 1807.07C1688.32 1813.34 1684.97 1820.16 1678.7 1822.31C1677.42 1822.75 1676.11 1822.96 1674.82 1822.96Z" fill="#451A1B"/>
<path d="M1662.38 1181.24C1797.53 1181.24 1907.09 1071.69 1907.09 936.542C1907.09 801.396 1797.53 691.839 1662.38 691.839C1527.24 691.839 1417.68 801.396 1417.68 936.542C1417.68 1071.69 1527.24 1181.24 1662.38 1181.24Z" fill="#F0F7FF"/>
<g opacity="0.2">
<path d="M1662.38 1139.35C1774.39 1139.35 1865.19 1048.55 1865.19 936.542C1865.19 824.535 1774.39 733.735 1662.38 733.735C1550.38 733.735 1459.58 824.535 1459.58 936.542C1459.58 1048.55 1550.38 1139.35 1662.38 1139.35Z" fill="#FF7D7F"/>
</g>
<path d="M1662.38 1193.24C1520.84 1193.24 1405.68 1078.09 1405.68 936.542C1405.68 794.995 1520.84 679.839 1662.38 679.839C1803.93 679.839 1919.09 794.995 1919.09 936.542C1919.09 1078.09 1803.93 1193.24 1662.38 1193.24ZM1662.38 703.839C1534.07 703.839 1429.68 808.23 1429.68 936.542C1429.68 1064.85 1534.07 1169.24 1662.38 1169.24C1790.7 1169.24 1895.09 1064.85 1895.09 936.542C1895.09 808.23 1790.7 703.839 1662.38 703.839Z" fill="#451A1B"/>
<path d="M1662.38 1111.91C1759.24 1111.91 1837.75 1033.4 1837.75 936.542C1837.75 839.688 1759.24 761.173 1662.38 761.173C1565.53 761.173 1487.01 839.688 1487.01 936.542C1487.01 1033.4 1565.53 1111.91 1662.38 1111.91Z" fill="#FF7D7F"/>
<path d="M1661.17 1114.31C1659.76 1114.31 1658.4 1113.57 1657.67 1112.26C1635.69 1072.69 1629.74 1027.83 1641.34 989.164C1645.47 973.455 1650.74 957.408 1655.83 941.893C1675.9 880.819 1694.85 823.131 1657.78 764.45C1656.6 762.581 1657.16 760.11 1659.03 758.93C1660.9 757.75 1663.37 758.307 1664.55 760.176C1703.62 822.047 1683.19 884.24 1663.44 944.389C1658.38 959.793 1653.14 975.723 1649.04 991.33C1638.02 1028.07 1643.73 1070.68 1664.66 1108.37C1665.74 1110.3 1665.04 1112.74 1663.11 1113.81C1662.49 1114.15 1661.83 1114.31 1661.17 1114.31Z" fill="#451A1B"/>
<path d="M1750.8 963.776C1712.8 963.78 1675.02 952.38 1643.37 929.948C1599.91 916.673 1537.78 908.046 1487.38 941.641C1485.54 942.866 1483.06 942.368 1481.84 940.532C1480.61 938.694 1481.11 936.21 1482.95 934.985C1536.19 899.489 1601.19 908.594 1646.34 922.491L1646.96 922.68L1647.49 923.057C1701.97 961.971 1775.68 966.571 1835.28 934.784C1837.23 933.737 1839.65 934.481 1840.69 936.43C1841.73 938.379 1841 940.803 1839.05 941.842C1811.52 956.526 1781.09 963.776 1750.8 963.776Z" fill="#451A1B"/>
<path d="M1537.16 1066.31C1536.56 1066.31 1535.95 1066.18 1535.38 1065.89C1533.4 1064.9 1532.6 1062.5 1533.59 1060.52C1535.39 1056.92 1536.31 1053.24 1537.29 1049.34C1538.32 1045.2 1539.39 1040.92 1541.59 1036.52L1541.84 1036.09C1545.7 1030.3 1548.56 1024.58 1551.59 1018.52C1554.59 1012.51 1557.7 1006.3 1561.84 1000.09C1578.27 975.448 1599.15 958.768 1623.9 950.518C1689.58 923.463 1761.58 888.221 1781.3 813.295C1781.86 811.156 1784.05 809.877 1786.18 810.443C1788.32 811.006 1789.6 813.193 1789.03 815.33C1768.38 893.807 1694.41 930.127 1626.69 958.012C1603.41 965.782 1583.91 981.401 1568.49 1004.53C1564.63 1010.32 1561.77 1016.05 1558.74 1022.1C1555.77 1028.04 1552.7 1034.18 1548.64 1040.31C1546.91 1043.85 1546 1047.46 1545.05 1051.28C1544.01 1055.43 1542.94 1059.71 1540.74 1064.1C1540.04 1065.5 1538.63 1066.31 1537.16 1066.31Z" fill="#451A1B"/>
<path d="M1785.17 1066.31C1784.7 1066.31 1784.23 1066.23 1783.76 1066.06C1718.54 1041.6 1669.54 988.161 1649.33 919.442C1636.72 864.838 1581.9 828.741 1536.27 818.212C1534.11 817.714 1532.77 815.567 1533.27 813.413C1533.76 811.261 1535.91 809.925 1538.07 810.415C1586.04 821.487 1643.74 859.692 1657.06 917.413C1676.5 983.468 1723.72 1035 1786.57 1058.57C1788.64 1059.34 1789.69 1061.65 1788.91 1063.72C1788.31 1065.32 1786.79 1066.31 1785.17 1066.31Z" fill="#451A1B"/>
<path d="M1662.38 1055.02C1727.81 1055.02 1780.86 1001.97 1780.86 936.542C1780.86 871.111 1727.81 818.068 1662.38 818.068C1596.95 818.068 1543.91 871.111 1543.91 936.542C1543.91 1001.97 1596.95 1055.02 1662.38 1055.02Z" fill="#451A1B"/>
<g opacity="0.2">
<path d="M1739.4 917.193C1746.22 888.314 1728.34 859.376 1699.46 852.557C1670.58 845.738 1641.64 863.621 1634.82 892.499C1628 921.377 1645.89 950.316 1674.77 957.135C1703.64 963.954 1732.58 946.071 1739.4 917.193Z" fill="white"/>
</g>
<g opacity="0.2">
<path d="M1650.87 999.52C1654.25 985.214 1645.39 970.877 1631.08 967.499C1616.77 964.121 1602.44 972.98 1599.06 987.287C1595.68 1001.59 1604.54 1015.93 1618.85 1019.31C1633.15 1022.69 1647.49 1013.83 1650.87 999.52Z" fill="white"/>
</g>
<path d="M1662.38 1123.91C1559.07 1123.91 1475.01 1039.86 1475.01 936.542C1475.01 833.226 1559.07 749.173 1662.38 749.173C1765.7 749.173 1849.75 833.226 1849.75 936.542C1849.75 1039.86 1765.7 1123.91 1662.38 1123.91ZM1662.38 773.173C1572.3 773.173 1499.01 846.46 1499.01 936.542C1499.01 1026.62 1572.3 1099.91 1662.38 1099.91C1752.46 1099.91 1825.75 1026.62 1825.75 936.542C1825.75 846.46 1752.46 773.173 1662.38 773.173Z" fill="#451A1B"/>
<path d="M1398.02 884.508L1865.19 736.648L1785.35 598.115L1410.5 725.406L1398.02 884.508Z" fill="#F0F7FF"/>
<path d="M1434.86 918.779L1852.77 786.512C1875.45 779.334 1887.89 755.009 1880.44 732.418L1862.66 678.518C1854.89 654.972 1828.77 642.969 1805.84 652.408L1397.88 820.367C1375.83 829.446 1365.49 854.827 1374.91 876.734L1382.74 894.942C1391.41 915.094 1413.94 925.398 1434.86 918.779Z" fill="#451A1B"/>
<path d="M1933.26 1047.59C1938.36 1044.96 1944.64 1046.97 1947.27 1052.07C1949.9 1057.18 1947.89 1063.45 1942.79 1066.09C1937.68 1068.72 1931.41 1066.71 1928.77 1061.6C1926.14 1056.5 1928.15 1050.22 1933.26 1047.59Z" fill="#451A1B"/>
<path d="M1945.03 1137.52C1950.14 1134.88 1956.41 1136.89 1959.05 1142C1961.68 1147.1 1959.67 1153.38 1954.56 1156.01C1949.46 1158.64 1943.18 1156.63 1940.55 1151.53C1937.92 1146.42 1939.93 1140.15 1945.03 1137.52Z" fill="#451A1B"/>
<path d="M2081.29 977.167C2086.64 975.069 2092.67 977.704 2094.77 983.053C2096.87 988.401 2094.23 994.438 2088.89 996.535C2083.54 998.632 2077.5 995.998 2075.4 990.649C2073.31 985.301 2075.94 979.265 2081.29 977.167Z" fill="#451A1B"/>
<path d="M2083.85 1067.82C2089.2 1065.73 2095.23 1068.36 2097.33 1073.71C2099.43 1079.06 2096.79 1085.09 2091.45 1087.19C2086.1 1089.29 2080.06 1086.65 2077.96 1081.31C2075.87 1075.96 2078.5 1069.92 2083.85 1067.82Z" fill="#451A1B"/>
<path d="M1653.03 1676.13C1657.63 1679.58 1658.56 1686.1 1655.11 1690.69C1651.67 1695.29 1645.15 1696.22 1640.55 1692.78C1635.95 1689.33 1635.02 1682.81 1638.47 1678.21C1641.91 1673.62 1648.43 1672.68 1653.03 1676.13Z" fill="#451A1B"/>
<path d="M1577.26 1725.98C1581.86 1729.42 1582.79 1735.94 1579.35 1740.54C1575.9 1745.13 1569.38 1746.07 1564.78 1742.62C1560.19 1739.18 1559.25 1732.66 1562.7 1728.06C1566.15 1723.46 1572.67 1722.53 1577.26 1725.98Z" fill="#451A1B"/>
</svg>
